<svg width="32" height="32" viewBox="0 0 32 32" fill="none" xmlns="http://www.w3.org/2000/svg">
<path d="M7.25 29.25C8.48613 29.25 9.69451 28.8834 10.7223 28.1967C11.7501 27.5099 12.5512 26.5338 13.0242 25.3918C13.4973 24.2497 13.6211 22.9931 13.3799 21.7807C13.1388 20.5683 12.5435 19.4547 11.6694 18.5806C10.7953 17.7065 9.6817 17.1113 8.46931 16.8701C7.25693 16.6289 6.00027 16.7527 4.85823 17.2258C3.71619 17.6988 2.74007 18.4999 2.05331 19.5277C1.36656 20.5555 1 21.7639 1 23C1.00187 24.657 1.66095 26.2457 2.83265 27.4174C4.00434 28.5891 5.59297 29.2481 7.25 29.25ZM7.25 18.75C8.09057 18.75 8.91226 18.9993 9.61117 19.4663C10.3101 19.9333 10.8548 20.597 11.1765 21.3736C11.4982 22.1502 11.5823 23.0047 11.4183 23.8291C11.2544 24.6536 10.8496 25.4108 10.2552 26.0052C9.66083 26.5996 8.90355 27.0044 8.07913 27.1683C7.25471 27.3323 6.40018 27.2482 5.6236 26.9265C4.84701 26.6048 4.18325 26.0601 3.71625 25.3612C3.24926 24.6623 3 23.8406 3 23C3.00127 21.8732 3.44945 20.793 4.2462 19.9962C5.04296 19.1995 6.12322 18.7513 7.25 18.75Z" fill="#A3D168"/>
<path d="M18.5 23C18.5 24.2361 18.8666 25.4445 19.5533 26.4723C20.2401 27.5001 21.2162 28.3012 22.3582 28.7742C23.5003 29.2473 24.7569 29.3711 25.9693 29.1299C27.1817 28.8888 28.2953 28.2935 29.1694 27.4194C30.0435 26.5453 30.6388 25.4317 30.8799 24.2193C31.1211 23.0069 30.9973 21.7503 30.5242 20.6082C30.0512 19.4662 29.2501 18.4901 28.2223 17.8033C27.1945 17.1166 25.9861 16.75 24.75 16.75C23.093 16.7519 21.5043 17.4109 20.3326 18.5826C19.1609 19.7543 18.5019 21.343 18.5 23ZM24.75 18.75C25.5906 18.75 26.4123 18.9993 27.1112 19.4663C27.8101 19.9332 28.3548 20.597 28.6765 21.3736C28.9982 22.1502 29.0823 23.0047 28.9183 23.8291C28.7543 24.6536 28.3496 25.4108 27.7552 26.0052C27.1608 26.5996 26.4036 27.0043 25.5791 27.1683C24.7547 27.3323 23.9002 27.2482 23.1236 26.9265C22.347 26.6048 21.6832 26.0601 21.2163 25.3612C20.7493 24.6623 20.5 23.8406 20.5 23C20.5013 21.8732 20.9494 20.793 21.7462 19.9962C22.543 19.1994 23.6232 18.7513 24.75 18.75Z" fill="#A3D168"/>
<path d="M19.8695 8.011C21.0461 8.011 22 7.05714 22 5.8805C22 4.70386 21.0461 3.75 19.8695 3.75C18.6929 3.75 17.739 4.70386 17.739 5.8805C17.739 7.05714 18.6929 8.011 19.8695 8.011Z" fill="#A3D168"/>
<path d="M11.9346 16.6437L15 19.6681V25.25H17V19.4591C16.9995 19.2605 16.9598 19.0639 16.8831 18.8807C16.8065 18.6975 16.6945 18.5312 16.5535 18.3913L13.3489 15.2296L17.5022 11.0762L21.1375 14.7982C21.2775 14.9408 21.4445 15.0542 21.6287 15.1318C21.8129 15.2093 22.0107 15.2495 22.2106 15.25H24V13.25H22.4211L16.6407 7.332L16.611 7.361L16.086 6.836L9.086 13.836L11.9144 16.6644L11.9346 16.6437Z" fill="#A3D168"/>
</svg>
