<?xml version="1.0" encoding="UTF-8" standalone="no"?>
<svg
   width="37.473331"
   height="48.486668"
   viewBox="0 0 28.104999 36.365001"
   version="1.1"
   id="svg60"
   sodipodi:docname="deleteD.svg"
   inkscape:version="1.2.2 (732a01da63, 2022-12-09)"
   xmlns:inkscape="http://www.inkscape.org/namespaces/inkscape"
   xmlns:sodipodi="http://sodipodi.sourceforge.net/DTD/sodipodi-0.dtd"
   xmlns="http://www.w3.org/2000/svg"
   xmlns:svg="http://www.w3.org/2000/svg">
  <defs
     id="defs64" />
  <sodipodi:namedview
     id="namedview62"
     pagecolor="#505050"
     bordercolor="#eeeeee"
     borderopacity="1"
     inkscape:showpageshadow="0"
     inkscape:pageopacity="0"
     inkscape:pagecheckerboard="0"
     inkscape:deskcolor="#505050"
     showgrid="false"
     inkscape:zoom="14.167193"
     inkscape:cx="19.587508"
     inkscape:cy="23.293252"
     inkscape:window-width="1920"
     inkscape:window-height="1009"
     inkscape:window-x="-8"
     inkscape:window-y="-8"
     inkscape:window-maximized="1"
     inkscape:current-layer="g58"
     showguides="false" />
  <g
     style="fill:#818181;fill-opacity:0.58"
     id="g58"
     transform="translate(-5.073,-0.943)">
    <path
       d="M 6.443,15.009 V 29.87 c 0,4.216 3.45,7.665 7.665,7.665 h 7.835 c 4.216,0 7.665,-3.449 7.665,-7.665 V 15.01 c 1.448,-0.81 2.47,-2.342 2.47,-4.13 0,-2.598 -2.129,-4.728 -4.727,-4.728 H 24.67 C 24.67,3.427 22.413,1.17 19.687,1.17 h -3.279 c -2.725,0 -4.982,2.215 -4.982,4.982 H 8.742 c -2.64,0 -4.769,2.13 -4.769,4.727 0,1.789 1.022,3.322 2.47,4.13 z m 15.5,19.12 H 14.108 A 4.27,4.27 0 0 1 9.85,29.87 V 15.605 H 26.202 V 29.87 a 4.27,4.27 0 0 1 -4.259,4.259 z M 16.365,4.576 h 3.279 c 0.852,0 1.576,0.681 1.576,1.575 H 14.79 C 14.832,5.3 15.513,4.576 16.365,4.576 Z M 8.7,9.558 h 18.652 c 0.723,0 1.32,0.596 1.32,1.32 0,0.724 -0.597,1.32 -1.32,1.32 H 8.7 c -0.724,0 -1.32,-0.596 -1.32,-1.32 0,-0.724 0.596,-1.32 1.32,-1.32 z"
       style="fill:#818181;fill-opacity:0.58;stroke-width:0.0760416"
       transform="translate(1.1,-0.227)"
       id="path54" />
  </g>
</svg>
