<svg xmlns="http://www.w3.org/2000/svg" width="700pt" height="700pt" viewBox="0 0 700 700"><g style="fill:#000;fill-opacity:.2"><path d="M492.003 263.058h-2.115c-8.442 0-16.358 2.062-23.51 5.476-8.969-18.306-27.617-31.048-49.346-31.048h-2.115c-10.759 0-20.745 3.22-29.241 8.583-10.1-12.892-25.642-21.36-43.255-21.36h-2.089c-6.099 0-11.874 1.228-17.376 3.071V114.477c0-30.398-24.721-55.12-55.12-55.12h-2.114c-30.398 0-55.12 24.722-55.12 55.12V302.96c-26.835 23.668-55.831 61.72-60.473 88.73-3.562 20.746 1.194 60.781 83.105 168.441 9.864 12.935 14.673 30.284 14.673 53.03 0 10.417 8.442 18.868 18.868 18.868 10.425 0 18.867-8.451 18.867-18.868 0-31.313-7.319-56.146-22.378-75.882-73.514-96.611-77.585-129.528-75.936-139.19 1.518-8.855 10.68-24.634 23.272-40.447v56.27c0 10.416 8.443 18.867 18.868 18.867 10.425 0 18.867-8.451 18.867-18.868V114.488c0-9.574 7.802-17.375 17.376-17.375h2.115c9.574 0 17.376 7.801 17.376 17.375V330.94c0 10.426 8.442 18.868 18.868 18.868 10.425 0 18.867-8.442 18.867-18.868v-51.118c0-9.574 7.802-17.376 17.376-17.376h2.089c9.582 0 17.375 7.802 17.375 17.376v63.912c0 10.417 8.451 18.868 18.868 18.868 10.416 0 18.867-8.451 18.867-18.868v-51.127c0-9.574 7.784-17.376 17.376-17.376h2.115c9.583 0 17.376 7.802 17.376 17.376v51.127c0 1.255.14 2.466.369 3.651v21.913c0 10.416 8.45 18.867 18.867 18.867 10.417 0 18.868-8.45 18.868-18.867v-51.119c0-9.574 7.783-17.375 17.375-17.375h2.115c9.575 0 17.35 7.801 17.35 17.375l.026 163.885c0 29.906-12.163 48.45-25.02 68.064-11.96 18.245-24.343 37.104-24.343 63.027 0 10.417 8.45 18.868 18.867 18.868 10.417 0 18.868-8.451 18.868-18.868 0-14.646 8.012-26.862 18.139-42.325 13.9-21.202 31.216-47.582 31.216-88.766V318.179c.017-30.398-24.703-55.119-55.077-55.119z" style="fill:#000;fill-opacity:.2;stroke-width:2.24656"/></g></svg>