<svg xmlns="http://www.w3.org/2000/svg" width="64" height="64" viewBox="0 0 48 48"><path d="m156.99 53.672-5.531 5.524-.78.78h3.153l-7.364-7.356v3.15l5.687-5.682c.362-.361.708-.734 1.109-1.051l-.451.35c.35-.272.73-.495 1.142-.673-.179.072-.357.15-.535.223.445-.19.913-.317 1.398-.384-.195.028-.395.055-.59.078a5.6 5.6 0 0 1 1.364 0 21.413 21.413 0 0 0-.59-.078c.479.067.947.194 1.398.384-.178-.073-.356-.15-.535-.223.407.178.786.4 1.142.673l-.451-.35c.34.267.64.573.908.907l-.35-.451c.272.356.495.74.673 1.152-.072-.178-.15-.356-.223-.534.179.434.296.879.362 1.346a21.251 21.251 0 0 1-.078-.59c.056.462.056.93-.006 1.391.028-.195.056-.395.078-.59a5.244 5.244 0 0 1-.345 1.263c.072-.178.15-.356.223-.534-.19.445-.43.852-.724 1.236l.35-.451c-.139.178-.283.34-.434.49-.819.828-.891 2.33 0 3.149.886.812 2.278.884 3.153 0 1.298-1.319 2.022-2.983 2.178-4.813.067-.796-.033-1.636-.24-2.404-.206-.773-.545-1.552-1.013-2.198-1.009-1.396-2.34-2.42-3.994-2.937a7.467 7.467 0 0 0-4.334 0 7.712 7.712 0 0 0-3.142 1.886c-.262.256-.518.517-.78.779l-5.509 5.503c-.852.85-.852 2.297 0 3.149l7.364 7.355c.852.851 2.3.851 3.153 0l6.311-6.304c.825-.823.886-2.337 0-3.149-.885-.829-2.267-.896-3.147-.017zM136.385 64.093l5.966 5.959v-3.15l-17.369 17.35c-.796.795-1.615 1.58-2.395 2.392l-.034.033c.329-.19.658-.384.986-.573-.724.206-1.448.417-2.167.64-1.136.345-2.283.834-3.464.996.195-.028.395-.056.59-.078-.223.028-.44.033-.663.01.195.029.396.057.59.079a1.902 1.902 0 0 1-.456-.117c.178.072.356.15.535.223-.1-.045-.195-.1-.29-.167l.451.35a1.7 1.7 0 0 1-.25-.24l.35.452a1.353 1.353 0 0 1-.167-.29c.073.178.15.356.223.534a1.575 1.575 0 0 1-.083-.328c.027.195.055.395.078.59a2.32 2.32 0 0 1 .01-.59c-.027.195-.055.395-.077.59.078-.573.267-1.118.445-1.664.206-.64.39-1.285.563-1.93.2-.757.39-1.514.557-2.276-.19.328-.384.656-.574.985l1.967-1.964 4.734-4.73 5.716-5.708 4.952-4.946c.796-.796 1.61-1.586 2.395-2.393l.034-.033c.824-.824.885-2.337 0-3.15-.892-.817-2.273-.879-3.153 0l-2.513 2.51-5.782 5.775-6.383 6.376-4.457 4.452c-.345.344-.769.695-1.014 1.118-.228.384-.29.823-.39 1.252-.144.6-.295 1.207-.456 1.802-.19.696-.401 1.375-.619 2.06-.228.722-.44 1.496-.429 2.264.017.984.385 2.003 1.165 2.637.785.645 1.72 1.007 2.751.946 1.471-.09 2.853-.662 4.24-1.085.545-.167 1.091-.328 1.637-.49.574-.167 1.092-.295 1.554-.734l.184-.184 3.571-3.566 6.189-6.182 6.155-6.148 3.537-3.533.168-.167c.852-.851.852-2.298 0-3.15-1.744-1.74-3.488-3.482-5.231-5.224l-.735-.734c-.825-.824-2.34-.885-3.153 0-.802.89-.87 2.27.01 3.149z" style="stroke-width:.1018;fill:#30d2a2;fill-opacity:1" transform="translate(-114.342 -44.147)"/><path d="M149.33 70.23a3.096 3.096 0 0 1-.244.217l.45-.35c-.189.144-.39.26-.612.35.178-.073.357-.15.535-.223-.195.072-.39.128-.59.161.194-.027.395-.055.59-.077a2.878 2.878 0 0 1-.758 0c.195.027.396.055.59.077a2.647 2.647 0 0 1-.59-.16c.178.071.357.15.535.222a3.351 3.351 0 0 1-.613-.35l.451.35c-.518-.412-.963-.935-1.431-1.402l-3.025-3.022-6.863-6.854c-.568-.568-1.203-1.108-1.71-1.736l.351.45a2.567 2.567 0 0 1-.35-.612c.072.179.15.357.222.535a3.198 3.198 0 0 1-.162-.59c.028.195.056.395.078.59a2.87 2.87 0 0 1 0-.757c-.027.195-.055.395-.078.59.034-.206.084-.4.162-.59-.072.178-.15.356-.223.534.095-.217.212-.417.351-.612l-.35.45c.45-.561 1.019-1.045 1.531-1.557l2.223-2.22c.222-.223.44-.456.685-.657l-.451.35c.189-.144.39-.26.612-.35-.178.073-.356.15-.534.223.195-.072.39-.128.59-.161-.195.027-.395.055-.59.077.256-.033.506-.033.757 0a21.452 21.452 0 0 0-.59-.077c.206.033.4.083.59.16-.178-.071-.356-.15-.535-.222.218.095.418.212.613.35l-.451-.35c.518.412.964.935 1.432 1.402l3.024 3.022 6.863 6.854c.568.568 1.203 1.108 1.71 1.736l-.35-.45c.144.189.261.389.35.612-.072-.179-.15-.357-.223-.535.073.195.128.39.162.59a21.25 21.25 0 0 1-.078-.59 2.87 2.87 0 0 1 0 .757c.028-.195.056-.395.078-.59a2.64 2.64 0 0 1-.162.59c.073-.178.15-.356.223-.534a3.346 3.346 0 0 1-.35.612l.35-.45c-.434.539-.986 1.012-1.476 1.502l-2.2 2.197-.518.518c-.825.823-.886 2.337 0 3.149.89.818 2.272.879 3.152 0 1.32-1.319 2.658-2.626 3.961-3.956.908-.924 1.482-2.214 1.426-3.528a4.944 4.944 0 0 0-1.42-3.293c-.318-.323-.647-.646-.964-.963l-4.858-4.852-5.18-5.174-1.398-1.397a5.196 5.196 0 0 0-.407-.378c-.618-.506-1.309-.924-2.111-1.074-.808-.15-1.638-.172-2.429.084-.852.272-1.56.745-2.189 1.374a96847.76 96847.76 0 0 0-3.543 3.539c-.445.445-.886.918-1.153 1.496-.334.73-.568 1.503-.518 2.315.045.807.245 1.591.663 2.287.362.606.863 1.073 1.354 1.569l11.57 11.556c.78.78 1.649 1.486 2.78 1.68.79.14 1.576.162 2.356-.077.78-.24 1.47-.651 2.055-1.213.841-.813.88-2.343 0-3.15-.897-.817-2.25-.856-3.147.006z" style="stroke-width:.1018;fill:#30d2a2;fill-opacity:1" transform="translate(-114.342 -44.147)"/></svg>