<svg xmlns="http://www.w3.org/2000/svg" width="22" height="22" fill="none"><g clip-path="url(#a)"><path fill="#A3D168" fill-opacity=".84" d="M11 .272c-6.077 0-11 4.928-11 11 0 4.863 3.151 8.984 7.52 10.439.551.103.75-.237.75-.531 0-.261-.006-.952-.01-1.87-3.061.663-3.706-1.478-3.706-1.478-.501-1.268-1.224-1.608-1.224-1.608-.996-.68.079-.666.079-.666 1.102.075 1.683 1.131 1.683 1.131.98 1.683 2.574 1.196 3.204.913.096-.709.383-1.196.695-1.468-2.442-.275-5.01-1.22-5.01-5.436 0-1.204.427-2.184 1.131-2.954-.121-.276-.494-1.396.097-2.912 0 0 .92-.293 3.025 1.129.88-.244 1.816-.366 2.75-.372.935.006 1.87.128 2.75.372 2.092-1.422 3.012-1.129 3.012-1.129.59 1.516.218 2.636.11 2.912.699.77 1.125 1.751 1.125 2.954 0 4.225-2.571 5.156-5.016 5.425.382.33.74 1.007.74 2.035 0 1.47-.013 2.656-.013 3.014 0 .286.192.63.759.52a10.954 10.954 0 0 0 7.548-10.42c0-6.073-4.924-11-11-11H11Z"/></g><defs><clipPath id="a"><path fill="#fff" d="M0 0h22v22H0z"/></clipPath></defs></svg>