<svg xmlns="http://www.w3.org/2000/svg" width="378.3" height="281.963"><path d="M382 200.57c-4.46-2.43-6.48-.4-8.11-2.43-1.63-2.03 4.46-7.3-7.7-12.57 0 0-.81-11.35-17.43-11.75-16.62-.4-12.15 11.35-16.61 14.18-4.46 2.83-5.68-1.62-10.14 1.22-4.46 2.84-2.43 8.51-6.08 9.33-3.65.82-8.51-3.65-13-.82s-4.43 5.27-6.46 5.27c-2.03 0-6.08-1.63-8.51 0-2.43 1.63-5.27 3.64-5.27 3.64h102.57s1.21-3.64-3.26-6.07z" style="fill:#a3d168" transform="translate(-62.55 -122.822)"/><path d="M382 200.57c-4.46-2.43-6.48-.4-8.11-2.43-1.63-2.03 4.46-7.3-7.7-12.57 0 0-.81-11.35-17.43-11.75-16.62-.4-12.15 11.35-16.61 14.18-4.46 2.83-5.68-1.62-10.14 1.22-4.46 2.84-2.43 8.51-6.08 9.33-3.65.82-8.51-3.65-13-.82s-4.43 5.27-6.46 5.27c-2.03 0-6.08-1.63-8.51 0-2.43 1.63-5.27 3.64-5.27 3.64h102.57s1.21-3.64-3.26-6.07z" style="opacity:.5;fill:#a3d168" transform="translate(-62.55 -122.822)"/><path d="M259.72 138.72c-2.64-1.45-3.84-.24-4.8-1.45s2.64-4.32-4.57-7.44c0 0-.48-6.73-10.33-7-9.85-.27-7.21 6.73-9.85 8.41-2.64 1.68-3.37-1-6 .72s-1.44 5-3.6 5.53c-2.16.53-5.05-2.17-7.69-.49-2.64 1.68-2.65 3.13-3.85 3.13-1.2 0-3.6-1-5 0s-3.13 2.16-3.13 2.16h60.79s.67-2.13-1.97-3.57z" style="fill:#a3d168" transform="translate(-62.55 -122.822)"/><path d="M259.72 138.72c-2.64-1.45-3.84-.24-4.8-1.45s2.64-4.32-4.57-7.44c0 0-.48-6.73-10.33-7-9.85-.27-7.21 6.73-9.85 8.41-2.64 1.68-3.37-1-6 .72s-1.44 5-3.6 5.53c-2.16.53-5.05-2.17-7.69-.49-2.64 1.68-2.65 3.13-3.85 3.13-1.2 0-3.6-1-5 0s-3.13 2.16-3.13 2.16h60.79s.67-2.13-1.97-3.57z" style="opacity:.5;fill:#a3d168" transform="translate(-62.55 -122.822)"/><path d="M228.84 242.17c-2.64-1.44-3.84-.24-4.81-1.44-.97-1.2 2.65-4.33-4.56-7.45 0 0-.48-6.73-10.33-7-9.85-.27-7.21 6.73-9.85 8.41-2.64 1.68-3.37-1-6 .72s-1.44 5.05-3.61 5.53c-2.17.48-5-2.17-7.68-.48-2.68 1.69-2.65 3.12-3.85 3.12-1.2 0-3.6-1-5 0s-3.12 2.16-3.12 2.16h60.79s.66-2.13-1.98-3.57z" style="fill:#a3d168" transform="translate(-62.55 -122.822)"/><path d="M228.84 242.17c-2.64-1.44-3.84-.24-4.81-1.44-.97-1.2 2.65-4.33-4.56-7.45 0 0-.48-6.73-10.33-7-9.85-.27-7.21 6.73-9.85 8.41-2.64 1.68-3.37-1-6 .72s-1.44 5.05-3.61 5.53c-2.17.48-5-2.17-7.68-.48-2.68 1.69-2.65 3.12-3.85 3.12-1.2 0-3.6-1-5 0s-3.12 2.16-3.12 2.16h60.79s.66-2.13-1.98-3.57z" style="opacity:.5;fill:#a3d168" transform="translate(-62.55 -122.822)"/><g style="opacity:.5"><path d="M382 200.57c-4.46-2.43-6.48-.4-8.11-2.43-1.63-2.03 4.46-7.3-7.7-12.57 0 0-.81-11.35-17.43-11.75-16.62-.4-12.15 11.35-16.61 14.18-4.46 2.83-5.68-1.62-10.14 1.22-4.46 2.84-2.43 8.51-6.08 9.33-3.65.82-8.51-3.65-13-.82s-4.43 5.27-6.46 5.27c-2.03 0-6.08-1.63-8.51 0-2.43 1.63-5.27 3.64-5.27 3.64h102.57s1.21-3.64-3.26-6.07z" style="fill:#fff" transform="translate(-62.55 -122.822)"/><path d="M382 200.57c-4.46-2.43-6.48-.4-8.11-2.43-1.63-2.03 4.46-7.3-7.7-12.57 0 0-.81-11.35-17.43-11.75-16.62-.4-12.15 11.35-16.61 14.18-4.46 2.83-5.68-1.62-10.14 1.22-4.46 2.84-2.43 8.51-6.08 9.33-3.65.82-8.51-3.65-13-.82s-4.43 5.27-6.46 5.27c-2.03 0-6.08-1.63-8.51 0-2.43 1.63-5.27 3.64-5.27 3.64h102.57s1.21-3.64-3.26-6.07z" style="opacity:.5;fill:#fff" transform="translate(-62.55 -122.822)"/></g><g style="opacity:.5"><path d="M259.72 138.72c-2.64-1.45-3.84-.24-4.8-1.45s2.64-4.32-4.57-7.44c0 0-.48-6.73-10.33-7-9.85-.27-7.21 6.73-9.85 8.41-2.64 1.68-3.37-1-6 .72s-1.44 5-3.6 5.53c-2.16.53-5.05-2.17-7.69-.49-2.64 1.68-2.65 3.13-3.85 3.13-1.2 0-3.6-1-5 0s-3.13 2.16-3.13 2.16h60.79s.67-2.13-1.97-3.57z" style="fill:#fff" transform="translate(-62.55 -122.822)"/><path d="M259.72 138.72c-2.64-1.45-3.84-.24-4.8-1.45s2.64-4.32-4.57-7.44c0 0-.48-6.73-10.33-7-9.85-.27-7.21 6.73-9.85 8.41-2.64 1.68-3.37-1-6 .72s-1.44 5-3.6 5.53c-2.16.53-5.05-2.17-7.69-.49-2.64 1.68-2.65 3.13-3.85 3.13-1.2 0-3.6-1-5 0s-3.13 2.16-3.13 2.16h60.79s.67-2.13-1.97-3.57z" style="opacity:.5;fill:#fff" transform="translate(-62.55 -122.822)"/></g><g style="opacity:.5"><path d="M228.84 242.17c-2.64-1.44-3.84-.24-4.81-1.44-.97-1.2 2.65-4.33-4.56-7.45 0 0-.48-6.73-10.33-7-9.85-.27-7.21 6.73-9.85 8.41-2.64 1.68-3.37-1-6 .72s-1.44 5.05-3.61 5.53c-2.17.48-5-2.17-7.68-.48-2.68 1.69-2.65 3.12-3.85 3.12-1.2 0-3.6-1-5 0s-3.12 2.16-3.12 2.16h60.79s.66-2.13-1.98-3.57z" style="fill:#fff" transform="translate(-62.55 -122.822)"/><path d="M228.84 242.17c-2.64-1.44-3.84-.24-4.81-1.44-.97-1.2 2.65-4.33-4.56-7.45 0 0-.48-6.73-10.33-7-9.85-.27-7.21 6.73-9.85 8.41-2.64 1.68-3.37-1-6 .72s-1.44 5.05-3.61 5.53c-2.17.48-5-2.17-7.68-.48-2.68 1.69-2.65 3.12-3.85 3.12-1.2 0-3.6-1-5 0s-3.12 2.16-3.12 2.16h60.79s.66-2.13-1.98-3.57z" style="opacity:.5;fill:#fff" transform="translate(-62.55 -122.822)"/></g><path d="m62.55 404.45 120.12-151.07a7.09 7.09 0 0 1 11.23.17l74.78 99.94 70-114.6a7.1 7.1 0 0 1 12.28.3l89.85 164.49z" style="fill:#a3d168" transform="translate(-62.55 -122.822)"/><path d="m62.55 404.45 120.12-151.07a7.09 7.09 0 0 1 11.23.17l74.78 99.94 70-114.6a7.1 7.1 0 0 1 12.28.3l89.85 164.49z" style="opacity:.4;fill:#fff" transform="translate(-62.55 -122.822)"/><g style="opacity:.2"><path d="m128.28 128.378 40.58 152.9 75.9-.15-113.41-150.4a7 7 0 0 0-3.07-2.35zM288.45 116.368a7.06 7.06 0 0 0-6.89-3.66l59.2 168.22 37.54-.07z"/></g><path d="M125.64 403.56h12.03l4.69-25.96z" style="opacity:.2" transform="translate(-62.55 -122.822)"/><path d="M352 404h51.54c-1-6.31-5-5.2-5.58-15-.27-4.92 4.29-11 3.89-17.47-.32-5.32-5.57-10.78-6-16.87-.37-5.5 4.11-11.59 3.68-17.52-.41-5.6-5.73-11-6.2-16.79-.47-5.79 3.92-11.83 3.41-17.57-.51-5.74-5.94-11-6.51-16.67-.59-5.82 3.66-12.08 3-17.65-.69-5.91-6.27-11-7-16.45-.85-6.07 3.1-12.54 2.18-17.78-1.13-6.41-7.1-11.05-8.36-15.78-2.34-8.81-2-17.3-4.81-17.86-3-.59-3.62 7.74-5.85 17.05-1.13 4.67-7 9.41-7.92 15.83-.78 5.19 3.35 11.51 2.67 17.55-.6 5.4-6 10.6-6.57 16.48-.49 5.52 3.92 11.62 3.48 17.4-.42 5.61-5.69 11-6.06 16.68-.37 5.68 4.19 11.68 3.88 17.31-.32 5.78-5.5 11.23-5.76 16.79-.29 5.87 4.35 11.8 4.13 17.25-.25 6-5.36 11.57-5.55 16.85-.23 6.41 4.48 12.33 4.33 17.21-.31 10.59-5.16 8.4-5.33 16.92z" style="fill:#a3d168" transform="translate(-62.55 -122.822)"/><path d="M374.11 217.6v184.05M382.15 236.9l-8.39 7.24-6.86-9.15M382.15 268.93l-8.39 7.25-6.86-9.16M382.15 299.06l-8.39 7.25-6.86-9.16M382.15 334.91l-8.39 7.24-6.86-9.15M382.15 371.14l-8.39 7.24-6.86-9.15" style="fill:none;stroke:#263238;stroke-miterlimit:10" transform="translate(-62.55 -122.822)"/><path d="M297.77 404h44.69c-.86-5.47-4.37-4.51-4.84-13-.23-4.26 3.72-9.54 3.38-15.14-.29-4.62-4.84-9.35-5.19-14.63-.32-4.77 3.56-10 3.19-15.19-.36-4.86-5-9.51-5.38-14.56-.38-5.05 3.4-10.26 3-15.24-.4-4.98-5.15-9.55-5.65-14.46s3.17-10.47 2.61-15.3c-.6-5.12-5.43-9.55-6.09-14.27-.73-5.25 2.7-10.87 1.9-15.41-1-5.56-6.16-9.58-7.25-13.68-2-7.64-1.78-15-4.17-15.49-2.56-.51-3.14 6.71-5.08 14.78-1 4-6 8.16-6.87 13.73-.67 4.5 2.91 10 2.32 15.21-.52 4.69-5.23 9.2-5.69 14.29-.44 4.8 3.39 10.08 3 15.09-.39 5.01-4.93 9.52-5.25 14.47-.32 4.95 3.63 10.13 3.36 15-.27 4.87-4.77 9.74-5 14.56-.24 5.09 3.78 10.23 3.58 15-.21 5.24-4.64 10-4.8 14.61-.2 5.56 3.88 10.69 3.75 14.92-.27 9.19-4.47 7.28-4.63 14.68z" style="fill:#a3d168" transform="translate(-62.55 -122.822)"/><path d="M316.95 242.37v159.6M323.93 259.1l-7.28 6.28-5.95-7.93M323.93 286.88l-7.28 6.28-5.95-7.93M323.93 313l-7.28 6.29-5.95-7.94M323.93 344.09l-7.28 6.28-5.95-7.93M323.93 375.51l-7.28 6.28-5.95-7.94" style="fill:none;stroke:#263238;stroke-miterlimit:10" transform="translate(-62.55 -122.822)"/><path d="M76 404h44.69c-.86-5.47-4.37-4.51-4.83-13-.24-4.26 3.71-9.54 3.37-15.14-.28-4.62-4.83-9.35-5.19-14.63-.31-4.77 3.57-10 3.19-15.19-.35-4.86-5-9.51-5.38-14.56-.38-5.05 3.41-10.26 3-15.24-.41-4.98-5.14-9.55-5.64-14.46s3.17-10.47 2.61-15.3c-.6-5.12-5.44-9.55-6.09-14.27-.73-5.25 2.69-10.87 1.89-15.41-1-5.56-6.16-9.58-7.24-13.68-2-7.64-1.78-15-4.17-15.49-2.56-.51-3.15 6.71-5.08 14.78-1 4-6 8.16-6.87 13.73-.67 4.5 2.9 10 2.32 15.21-.53 4.69-5.24 9.2-5.7 14.29-.43 4.8 3.4 10.08 3 15.09-.4 5.01-4.94 9.52-5.26 14.47-.32 4.95 3.63 10.13 3.36 15-.27 4.87-4.76 9.74-5 14.56-.25 5.09 3.77 10.23 3.58 15-.22 5.24-4.65 10-4.81 14.61-.2 5.56 3.89 10.69 3.76 14.92-.27 9.19-4.48 7.28-4.63 14.68z" style="fill:#a3d168" transform="translate(-62.55 -122.822)"/><path d="M95.21 242.37v159.6M102.19 259.1l-7.28 6.28-5.95-7.93M102.19 286.88l-7.28 6.28-5.95-7.93M102.19 313l-7.28 6.29-5.95-7.94M102.19 344.09l-7.28 6.28-5.95-7.93M102.19 375.51l-7.28 6.28-5.95-7.94" style="fill:none;stroke:#263238;stroke-miterlimit:10" transform="translate(-62.55 -122.822)"/><g transform="translate(-62.55 -122.822)"><circle cx="308.8" cy="366.31" r="38.45" style="fill:#263238" transform="rotate(-13.06 308.899 366.418)"/><circle cx="308.8" cy="366.31" r="34.13" style="fill:#fff" transform="rotate(-22.01 308.88 366.364)"/><path d="M308.8 396.06A29.75 29.75 0 0 0 336 378.3M308.8 336.57a29.73 29.73 0 0 0-26 15.24" style="fill:none;stroke:#263238;stroke-linecap:round;stroke-linejoin:round"/><path d="M308.8 339.55a26.77 26.77 0 0 0-23.39 13.74M308.29 393.07h.51A26.78 26.78 0 0 0 333.36 377" style="fill:none;stroke:#263238;stroke-linecap:round;stroke-linejoin:round"/><path d="M308.8 342.86a23.44 23.44 0 0 0-20.51 12.07M308.8 389.77a23.45 23.45 0 0 0 21.41-13.88" style="fill:none;stroke:#263238;stroke-linecap:round;stroke-linejoin:round"/><path d="M308.8 346.5a19.81 19.81 0 0 0-17.29 10.13M308.8 386.12a19.81 19.81 0 0 0 17.92-11.35" style="fill:none;stroke:#263238;stroke-linecap:round;stroke-linejoin:round"/><circle cx="187.13" cy="366.31" r="38.45" style="fill:#263238" transform="rotate(-45 187.13 366.308)"/><circle cx="187.13" cy="366.31" r="34.13" style="fill:#fff" transform="rotate(-67 187.117 366.304)"/><path d="M187.13 396.06a29.75 29.75 0 0 0 27.23-17.76M187.13 336.57a29.72 29.72 0 0 0-26 15.24" style="fill:none;stroke:#263238;stroke-linecap:round;stroke-linejoin:round"/><path d="M187.13 339.55a26.77 26.77 0 0 0-23.39 13.74M186.62 393.07h.51A26.77 26.77 0 0 0 211.69 377" style="fill:none;stroke:#263238;stroke-linecap:round;stroke-linejoin:round"/><path d="M187.13 342.86a23.45 23.45 0 0 0-20.51 12.07M187.13 389.77a23.47 23.47 0 0 0 21.42-13.88" style="fill:none;stroke:#263238;stroke-linecap:round;stroke-linejoin:round"/><path d="M187.13 346.5a19.82 19.82 0 0 0-17.29 10.13M187.13 386.12a19.8 19.8 0 0 0 17.92-11.35" style="fill:none;stroke:#263238;stroke-linecap:round;stroke-linejoin:round"/><path d="m277.88 239.55-4.63-20.47s-5.5-2-9.9.44c-3.63 2-16.32 19.72-20.64 25.85l-.26-.26a.66.66 0 0 0-1.14 0s-3 2.66-2.88 3.59a7 7 0 0 0 1.14 1.61l-24.69 25s-6.66.15-7.85.74c-1.19.59-1.19.74-1.19 3s.3 4.3.74 4.45c.44.15 3.12.74 3.41-.15.29-.89-.74-2.52-.74-2.52s.74-1.92 2.23-1.33c1.49.59 2.66 2.52 4.59 1.78 1.93-.74 3.56-3.86 3.56-3.86l26.67-19.76a17.38 17.38 0 0 0 1.63 1.52c.95.62 4.28-1.89 4.23-3.13a.44.44 0 0 0 0-.14z" style="fill:#263238"/><path d="M214.18 293a1.33 1.33 0 0 1-1.15-.67l-6.22-10.88a1.323 1.323 0 0 1 2.3-1.31l6.22 10.86a1.32 1.32 0 0 1-1.15 2z" style="fill:#fff;stroke:#263238;stroke-linecap:round;stroke-linejoin:round"/><path d="m236.83 248.89-25.61 26s-6.67.15-7.86.74c-1.19.59-1.19.74-1.19 3s.3 4.29.75 4.44c.45.15 3.11.74 3.4-.15.29-.89-.74-2.52-.74-2.52s.74-1.92 2.23-1.33c1.49.59 2.66 2.52 4.59 1.78 1.93-.74 3.56-3.85 3.56-3.85l27.84-20.7z" style="fill:#fff;stroke:#263238;stroke-linecap:round;stroke-linejoin:round"/><path d="M211.07 280.51a3.08 3.08 0 1 0-3.08 3.07 3.08 3.08 0 0 0 3.08-3.07zM291.6 283.31a27.55 27.55 0 0 1-8.81 2.42c-4.84.44-8.14-.22-7 3.3 1.14 3.52 8.58 4.18 14.09 2.86 5.51-1.32 8.14-3.3 7.48-6.82-.66-3.52-4-2.42-5.76-1.76z" style="fill:#263238"/><path d="M274.21 275.6s-33.9 25.1-34.78 30.38c-.88 5.28 5.28 45.34 5.28 45.34l5.28 1.76s2.87-35.66 5.73-42.48c2.86-6.82 31.26-22.89 31.92-31 .66-8.11-6.39-8.18-13.43-4z" style="fill:#263238"/><path d="M244.71 351.32a26.65 26.65 0 0 1-5.06.88c-2.86.22-6.82-1.32-6.82-.22s4.84 5.29 7.26 5.51c2.42.22 5.5.44 5.5.44l.12 1.71 3.18.93 1.1-7.49z" style="fill:#263238"/><path d="M233.93 356.83h11.67v3.3h-11.67z" style="fill:#fff;stroke:#263238;stroke-linecap:round;stroke-linejoin:round" transform="rotate(26.85 239.767 358.528)"/><path d="m254.38 364.39-14.29-6.9-.33.99 13.32 9.13z" style="fill:#fff;stroke:#263238;stroke-linecap:round;stroke-linejoin:round"/><path d="m309.54 364.11-26.84-67.43a1.33 1.33 0 0 0-.31-.46l1.42-3.74a1.321 1.321 0 1 0-2.47-.94l-3.1 8.17h-64.53c1.15-4.74 1.74-7.64 1.77-7.75a1.32 1.32 0 1 0-2.59-.52c-.09.44-9.18 44.88-26.89 74.19a1.33 1.33 0 0 0 .45 1.81 1.32 1.32 0 0 0 1.81-.45c9.4-15.55 16.39-35.26 20.93-50.58L253 368.25a2.37 2.37 0 0 0 .32.61 2.63 2.63 0 0 0 2.13 1.09h.12l51.65-2.24a2.65 2.65 0 0 0 2.1-1.2 2.62 2.62 0 0 0 .22-2.4zm-96.49-61.76h64.19l-23.67 62.5-43.49-51.48c1.19-4.13 2.17-7.87 2.97-11.02zm42.41 65 25.61-67.6 26 65.35z" style="fill:#fff;stroke:#263238;stroke-linecap:round;stroke-linejoin:round"/><path d="M217.26 291.7a3.08 3.08 0 1 0-3.08 3.08 3.08 3.08 0 0 0 3.08-3.08z" style="fill:#fff;stroke:#263238;stroke-linecap:round;stroke-linejoin:round"/><path d="M191.48 366.31a4.35 4.35 0 1 0-4.35 4.35 4.35 4.35 0 0 0 4.35-4.35zM312.62 366.31a4.36 4.36 0 1 0-4.36 4.35 4.36 4.36 0 0 0 4.36-4.35zM263.57 366.31a9 9 0 1 0-9 9 9 9 0 0 0 9-9z" style="fill:#263238"/><path d="m268.26 368.05-13.88-3.66a2 2 0 0 0-2.48 1.44v0a2 2 0 0 0 1.69 2.53l15.56 2.11z" style="fill:#fff;stroke:#263238;stroke-linecap:round;stroke-linejoin:round"/><path d="M265.62 366.29h11.67v3.3h-11.67z" style="fill:#fff;stroke:#263238;stroke-linecap:round;stroke-linejoin:round" transform="rotate(-47.73 271.471 367.945)"/><path d="M274 274.72s-26.57 24.57-27.89 31.39c-1.32 6.82 25.69 50.94 25.69 50.94l5.28-1.76s-15.19-38.75-13.21-41.61c1.98-2.86 37.52-26.87 42.81-35 5.29-8.13 2.29-16.26-1.67-20-3.96-3.74-31.01 16.04-31.01 16.04z" style="fill:#263238"/><path d="m256.38 306.12 7.48 7.56-3.7-9.19" style="fill:none;stroke:#fff;stroke-width:.75px;stroke-linecap:round;stroke-linejoin:round"/><path d="M251.24 321s-5.41-13.25-3.79-17.31c1.62-4.06 28.12-24.06 28.12-24.06s13.25-4.46 22.18-2.71M290.45 274.48s4.59-2.16 11.35.27" style="fill:none;stroke:#fff;stroke-width:.75px;stroke-linecap:round;stroke-linejoin:round"/><path d="M271.79 357.05s-2.42 2.64-4.85 5.06c-2.43 2.42-5.5 3.08-4.4 3.74 1.1.66 2.86 1.32 6.17.22s7.48-4.84 7.48-4.84l.66 1.1 3.74-2-3.52-5.06z" style="fill:#263238"/><path d="M258.33 187.17a16.67 16.67 0 0 0-14-4.76c-4.71.85-6 7.24-6.9 11.08l-.83 3.51.08 2.69-1.5 5.72a1.26 1.26 0 0 0 1.06 1.58l1.68.22c.29 1.87 2.19 5.59 2.44 6.89 1 5 4.27 4.65 6.4 3.88a17.45 17.45 0 0 0 3.8-2.46l5 4.23 8.94-9.73-3.82-5.52s1.15-13.66-2.35-17.33z" style="fill:#fff;stroke:#263238;stroke-linecap:round;stroke-linejoin:round"/><path d="M240.14 201.06c.14.79 0 1.48-.31 1.53-.31.05-.67-.54-.8-1.33s0-1.48.3-1.53c.3-.05.67.54.81 1.33z" style="fill:#263238"/><path d="M237.73 197.93a2.45 2.45 0 0 1 3.71.49" style="fill:none;stroke:#263238;stroke-linecap:round;stroke-linejoin:round"/><path d="M245.17 192.33s-2.67 3.17-1.67 4.34a51.93 51.93 0 0 0 4.33 3.83s2.34-4.17 5.67-2.5.67 5.67 1.83 7.33c1.16 1.66 5.17-.83 5.5-1.66.33-.83 6.34-13 6.67-17.5.33-4.5-12-9-17.33-10-5.33-1-9.34 1.33-8.34.33s2.67-3.67-.5-4c-3.17-.33-7.33 4.5-7.33 7.33a3 3 0 0 0 2.83 3s-8-2-5.83 2.67 5.83 4.5 9.17 4.67a7.19 7.19 0 0 1 5 2.16z" style="fill:#263238"/><path d="M251.33 198.5h-.11a1 1 0 0 1-.88-1.1l1.17-10.34a1.007 1.007 0 1 1 2 .23l-1.16 10.33a1 1 0 0 1-1.02.88z" style="fill:#fff;stroke:#263238;stroke-miterlimit:10"/><path d="M250.88 208.23a4.59 4.59 0 0 1-4.6-4.59v-4.3a4.6 4.6 0 0 1 4.6-4.59 4.6 4.6 0 0 1 4.6 4.59v4.3a4.59 4.59 0 0 1-4.6 4.59zM252.06 177l-1.45 10.64a2 2 0 0 0 1.77 2.28h.12a2 2 0 0 0 2.25-1.76l1.33-10.66a2 2 0 0 0-1.76-2.26 2 2 0 0 0-2.26 1.76z" style="fill:#fff;stroke:#263238;stroke-miterlimit:10"/><path d="M265.84 206s-16 14.51-15.77 16.93c.23 2.42-.28 13.22 5.66 25.33 5.94 12.11 13.06 22.29 15.7 26.91 2.64 4.62 10.33 1.2 10.33 1.2s16.17-5.67 21.45-10.73c5.28-5.06 0-14.3 0-14.3s-19.54-27.95-25.92-34.77A94.81 94.81 0 0 0 265.84 206Z" style="fill:#a3d168;stroke:#263238;stroke-linecap:round;stroke-linejoin:round"/><path d="M249.67 225s3.25-2.89 5.88-5.28 15.95-5.05 19.28-4.39c3.33.66 4.17 3.67 4.84 3.5.67-.17 1-4.5-2.5-10.33s-8.84-8.33-11.67-6.5-9.83 10.67-12.83 14.33-4.17 5.84-3 8.67z" style="fill:#a3d168;stroke:#263238;stroke-linecap:round;stroke-linejoin:round"/><path d="M264.38 244.13s10.72.89 18.17-.6M260.2 245s10.13 6.26 20.56 6.85" style="fill:none;stroke:#263238;stroke-linecap:round;stroke-linejoin:round"/><path d="M269.59 218.59s-5.51-2-9.91.44S237.57 247 237.57 247l9 9.63 27.6-17.54" style="fill:#a3d168;stroke:#263238;stroke-linecap:round;stroke-linejoin:round"/><path d="M237.64 244.63s-3 2.66-2.88 3.59c.12.93 8.55 9.86 9.5 10.47.95.61 4.28-1.89 4.23-3.13-.05-1.24-9.71-10.94-9.71-10.94a.66.66 0 0 0-1.14.01z" style="fill:#a3d168;stroke:#263238;stroke-linecap:round;stroke-linejoin:round"/></g></svg>