<?xml version="1.0" encoding="UTF-8" standalone="no"?>
<svg
   viewBox="0 0 378.29999 281.96268"
   version="1.1"
   id="svg198"
   sodipodi:docname="main-preview.svg"
   width="378.29999"
   height="281.96268"
   inkscape:version="1.2.2 (732a01da63, 2022-12-09)"
   xmlns:inkscape="http://www.inkscape.org/namespaces/inkscape"
   xmlns:sodipodi="http://sodipodi.sourceforge.net/DTD/sodipodi-0.dtd"
   xmlns="http://www.w3.org/2000/svg"
   xmlns:svg="http://www.w3.org/2000/svg">
  <defs
     id="defs202" />
  <sodipodi:namedview
     id="namedview200"
     pagecolor="#ffffff"
     bordercolor="#000000"
     borderopacity="0.25"
     inkscape:showpageshadow="2"
     inkscape:pageopacity="0.0"
     inkscape:pagecheckerboard="0"
     inkscape:deskcolor="#d1d1d1"
     showgrid="false"
     inkscape:zoom="0.944"
     inkscape:cx="209.2161"
     inkscape:cy="123.94068"
     inkscape:window-width="1920"
     inkscape:window-height="1009"
     inkscape:window-x="-8"
     inkscape:window-y="-8"
     inkscape:window-maximized="1"
     inkscape:current-layer="svg198" />
  <g
     id="freepik--Clouds--inject-3"
     transform="translate(-62.55,-122.8224)">
    <path
       d="m 382,200.57 c -4.46,-2.43 -6.48,-0.4 -8.11,-2.43 -1.63,-2.03 4.46,-7.3 -7.7,-12.57 0,0 -0.81,-11.35 -17.43,-11.75 -16.62,-0.4 -12.15,11.35 -16.61,14.18 -4.46,2.83 -5.68,-1.62 -10.14,1.22 -4.46,2.84 -2.43,8.51 -6.08,9.33 -3.65,0.82 -8.51,-3.65 -13,-0.82 -4.49,2.83 -4.43,5.27 -6.46,5.27 -2.03,0 -6.08,-1.63 -8.51,0 -2.43,1.63 -5.27,3.64 -5.27,3.64 h 102.57 c 0,0 1.21,-3.64 -3.26,-6.07 z"
       style="fill:#a3d168"
       id="path2" />
    <path
       d="m 382,200.57 c -4.46,-2.43 -6.48,-0.4 -8.11,-2.43 -1.63,-2.03 4.46,-7.3 -7.7,-12.57 0,0 -0.81,-11.35 -17.43,-11.75 -16.62,-0.4 -12.15,11.35 -16.61,14.18 -4.46,2.83 -5.68,-1.62 -10.14,1.22 -4.46,2.84 -2.43,8.51 -6.08,9.33 -3.65,0.82 -8.51,-3.65 -13,-0.82 -4.49,2.83 -4.43,5.27 -6.46,5.27 -2.03,0 -6.08,-1.63 -8.51,0 -2.43,1.63 -5.27,3.64 -5.27,3.64 h 102.57 c 0,0 1.21,-3.64 -3.26,-6.07 z"
       style="opacity:0.5;fill:#a3d168"
       id="path4" />
    <path
       d="m 259.72,138.72 c -2.64,-1.45 -3.84,-0.24 -4.8,-1.45 -0.96,-1.21 2.64,-4.32 -4.57,-7.44 0,0 -0.48,-6.73 -10.33,-7 -9.85,-0.27 -7.21,6.73 -9.85,8.41 -2.64,1.68 -3.37,-1 -6,0.72 -2.63,1.72 -1.44,5 -3.6,5.53 -2.16,0.53 -5.05,-2.17 -7.69,-0.49 -2.64,1.68 -2.65,3.13 -3.85,3.13 -1.2,0 -3.6,-1 -5,0 -1.4,1 -3.13,2.16 -3.13,2.16 h 60.79 c 0,0 0.67,-2.13 -1.97,-3.57 z"
       style="fill:#a3d168"
       id="path6" />
    <path
       d="m 259.72,138.72 c -2.64,-1.45 -3.84,-0.24 -4.8,-1.45 -0.96,-1.21 2.64,-4.32 -4.57,-7.44 0,0 -0.48,-6.73 -10.33,-7 -9.85,-0.27 -7.21,6.73 -9.85,8.41 -2.64,1.68 -3.37,-1 -6,0.72 -2.63,1.72 -1.44,5 -3.6,5.53 -2.16,0.53 -5.05,-2.17 -7.69,-0.49 -2.64,1.68 -2.65,3.13 -3.85,3.13 -1.2,0 -3.6,-1 -5,0 -1.4,1 -3.13,2.16 -3.13,2.16 h 60.79 c 0,0 0.67,-2.13 -1.97,-3.57 z"
       style="opacity:0.5;fill:#a3d168"
       id="path8" />
    <path
       d="m 228.84,242.17 c -2.64,-1.44 -3.84,-0.24 -4.81,-1.44 -0.97,-1.2 2.65,-4.33 -4.56,-7.45 0,0 -0.48,-6.73 -10.33,-7 -9.85,-0.27 -7.21,6.73 -9.85,8.41 -2.64,1.68 -3.37,-1 -6,0.72 -2.63,1.72 -1.44,5.05 -3.61,5.53 -2.17,0.48 -5,-2.17 -7.68,-0.48 -2.68,1.69 -2.65,3.12 -3.85,3.12 -1.2,0 -3.6,-1 -5,0 -1.4,1 -3.12,2.16 -3.12,2.16 h 60.79 c 0,0 0.66,-2.13 -1.98,-3.57 z"
       style="fill:#a3d168"
       id="path10" />
    <path
       d="m 228.84,242.17 c -2.64,-1.44 -3.84,-0.24 -4.81,-1.44 -0.97,-1.2 2.65,-4.33 -4.56,-7.45 0,0 -0.48,-6.73 -10.33,-7 -9.85,-0.27 -7.21,6.73 -9.85,8.41 -2.64,1.68 -3.37,-1 -6,0.72 -2.63,1.72 -1.44,5.05 -3.61,5.53 -2.17,0.48 -5,-2.17 -7.68,-0.48 -2.68,1.69 -2.65,3.12 -3.85,3.12 -1.2,0 -3.6,-1 -5,0 -1.4,1 -3.12,2.16 -3.12,2.16 h 60.79 c 0,0 0.66,-2.13 -1.98,-3.57 z"
       style="opacity:0.5;fill:#a3d168"
       id="path12" />
    <g
       style="opacity:0.5"
       id="g18">
      <path
         d="m 382,200.57 c -4.46,-2.43 -6.48,-0.4 -8.11,-2.43 -1.63,-2.03 4.46,-7.3 -7.7,-12.57 0,0 -0.81,-11.35 -17.43,-11.75 -16.62,-0.4 -12.15,11.35 -16.61,14.18 -4.46,2.83 -5.68,-1.62 -10.14,1.22 -4.46,2.84 -2.43,8.51 -6.08,9.33 -3.65,0.82 -8.51,-3.65 -13,-0.82 -4.49,2.83 -4.43,5.27 -6.46,5.27 -2.03,0 -6.08,-1.63 -8.51,0 -2.43,1.63 -5.27,3.64 -5.27,3.64 h 102.57 c 0,0 1.21,-3.64 -3.26,-6.07 z"
         style="fill:#ffffff"
         id="path14" />
      <path
         d="m 382,200.57 c -4.46,-2.43 -6.48,-0.4 -8.11,-2.43 -1.63,-2.03 4.46,-7.3 -7.7,-12.57 0,0 -0.81,-11.35 -17.43,-11.75 -16.62,-0.4 -12.15,11.35 -16.61,14.18 -4.46,2.83 -5.68,-1.62 -10.14,1.22 -4.46,2.84 -2.43,8.51 -6.08,9.33 -3.65,0.82 -8.51,-3.65 -13,-0.82 -4.49,2.83 -4.43,5.27 -6.46,5.27 -2.03,0 -6.08,-1.63 -8.51,0 -2.43,1.63 -5.27,3.64 -5.27,3.64 h 102.57 c 0,0 1.21,-3.64 -3.26,-6.07 z"
         style="opacity:0.5;fill:#ffffff"
         id="path16" />
    </g>
    <g
       style="opacity:0.5"
       id="g24">
      <path
         d="m 259.72,138.72 c -2.64,-1.45 -3.84,-0.24 -4.8,-1.45 -0.96,-1.21 2.64,-4.32 -4.57,-7.44 0,0 -0.48,-6.73 -10.33,-7 -9.85,-0.27 -7.21,6.73 -9.85,8.41 -2.64,1.68 -3.37,-1 -6,0.72 -2.63,1.72 -1.44,5 -3.6,5.53 -2.16,0.53 -5.05,-2.17 -7.69,-0.49 -2.64,1.68 -2.65,3.13 -3.85,3.13 -1.2,0 -3.6,-1 -5,0 -1.4,1 -3.13,2.16 -3.13,2.16 h 60.79 c 0,0 0.67,-2.13 -1.97,-3.57 z"
         style="fill:#ffffff"
         id="path20" />
      <path
         d="m 259.72,138.72 c -2.64,-1.45 -3.84,-0.24 -4.8,-1.45 -0.96,-1.21 2.64,-4.32 -4.57,-7.44 0,0 -0.48,-6.73 -10.33,-7 -9.85,-0.27 -7.21,6.73 -9.85,8.41 -2.64,1.68 -3.37,-1 -6,0.72 -2.63,1.72 -1.44,5 -3.6,5.53 -2.16,0.53 -5.05,-2.17 -7.69,-0.49 -2.64,1.68 -2.65,3.13 -3.85,3.13 -1.2,0 -3.6,-1 -5,0 -1.4,1 -3.13,2.16 -3.13,2.16 h 60.79 c 0,0 0.67,-2.13 -1.97,-3.57 z"
         style="opacity:0.5;fill:#ffffff"
         id="path22" />
    </g>
    <g
       style="opacity:0.5"
       id="g30">
      <path
         d="m 228.84,242.17 c -2.64,-1.44 -3.84,-0.24 -4.81,-1.44 -0.97,-1.2 2.65,-4.33 -4.56,-7.45 0,0 -0.48,-6.73 -10.33,-7 -9.85,-0.27 -7.21,6.73 -9.85,8.41 -2.64,1.68 -3.37,-1 -6,0.72 -2.63,1.72 -1.44,5.05 -3.61,5.53 -2.17,0.48 -5,-2.17 -7.68,-0.48 -2.68,1.69 -2.65,3.12 -3.85,3.12 -1.2,0 -3.6,-1 -5,0 -1.4,1 -3.12,2.16 -3.12,2.16 h 60.79 c 0,0 0.66,-2.13 -1.98,-3.57 z"
         style="fill:#ffffff"
         id="path26" />
      <path
         d="m 228.84,242.17 c -2.64,-1.44 -3.84,-0.24 -4.81,-1.44 -0.97,-1.2 2.65,-4.33 -4.56,-7.45 0,0 -0.48,-6.73 -10.33,-7 -9.85,-0.27 -7.21,6.73 -9.85,8.41 -2.64,1.68 -3.37,-1 -6,0.72 -2.63,1.72 -1.44,5.05 -3.61,5.53 -2.17,0.48 -5,-2.17 -7.68,-0.48 -2.68,1.69 -2.65,3.12 -3.85,3.12 -1.2,0 -3.6,-1 -5,0 -1.4,1 -3.12,2.16 -3.12,2.16 h 60.79 c 0,0 0.66,-2.13 -1.98,-3.57 z"
         style="opacity:0.5;fill:#ffffff"
         id="path28" />
    </g>
  </g>
  <g
     id="freepik--Mountains--inject-3"
     transform="translate(-62.55,-122.8224)">
    <path
       d="M 62.55,404.45 182.67,253.38 a 7.09,7.09 0 0 1 11.23,0.17 l 74.78,99.94 70,-114.6 a 7.1,7.1 0 0 1 12.28,0.3 l 89.85,164.49 z"
       style="fill:#a3d168"
       id="path33" />
    <path
       d="M 62.55,404.45 182.67,253.38 a 7.09,7.09 0 0 1 11.23,0.17 l 74.78,99.94 70,-114.6 a 7.1,7.1 0 0 1 12.28,0.3 l 89.85,164.49 z"
       style="opacity:0.4;fill:#ffffff"
       id="path35" />
    <g
       style="opacity:0.2"
       id="g41">
      <path
         d="m 190.83,251.2 40.58,152.9 75.9,-0.15 -113.41,-150.4 a 7,7 0 0 0 -3.07,-2.35 z"
         id="path37" />
      <path
         d="m 351,239.19 a 7.06,7.06 0 0 0 -6.89,-3.66 l 59.2,168.22 37.54,-0.07 z"
         id="path39" />
    </g>
    <polygon
       points="125.64,403.56 137.67,403.56 142.36,377.6 "
       style="opacity:0.2"
       id="polygon43" />
  </g>
  <g
     id="freepik--Trees--inject-3"
     transform="translate(-62.55,-122.8224)">
    <path
       d="m 352,404 h 51.54 c -1,-6.31 -5,-5.2 -5.58,-15 -0.27,-4.92 4.29,-11 3.89,-17.47 -0.32,-5.32 -5.57,-10.78 -6,-16.87 -0.37,-5.5 4.11,-11.59 3.68,-17.52 -0.41,-5.6 -5.73,-11 -6.2,-16.79 -0.47,-5.79 3.92,-11.83 3.41,-17.57 -0.51,-5.74 -5.94,-11 -6.51,-16.67 -0.59,-5.82 3.66,-12.08 3,-17.65 -0.69,-5.91 -6.27,-11 -7,-16.45 -0.85,-6.07 3.1,-12.54 2.18,-17.78 -1.13,-6.41 -7.1,-11.05 -8.36,-15.78 -2.34,-8.81 -2,-17.3 -4.81,-17.86 -3,-0.59 -3.62,7.74 -5.85,17.05 -1.13,4.67 -7,9.41 -7.92,15.83 -0.78,5.19 3.35,11.51 2.67,17.55 -0.6,5.4 -6,10.6 -6.57,16.48 -0.49,5.52 3.92,11.62 3.48,17.4 -0.42,5.61 -5.69,11 -6.06,16.68 -0.37,5.68 4.19,11.68 3.88,17.31 -0.32,5.78 -5.5,11.23 -5.76,16.79 -0.29,5.87 4.35,11.8 4.13,17.25 -0.25,6 -5.36,11.57 -5.55,16.85 -0.23,6.41 4.48,12.33 4.33,17.21 -0.31,10.59 -5.16,8.4 -5.33,16.92 z"
       style="fill:#a3d168"
       id="path46" />
    <line
       x1="374.10999"
       y1="217.60001"
       x2="374.10999"
       y2="401.64999"
       style="fill:none;stroke:#263238;stroke-miterlimit:10"
       id="line48" />
    <polyline
       points="382.15 236.9 373.76 244.14 366.9 234.99"
       style="fill:none;stroke:#263238;stroke-miterlimit:10"
       id="polyline50" />
    <polyline
       points="382.15 268.93 373.76 276.18 366.9 267.02"
       style="fill:none;stroke:#263238;stroke-miterlimit:10"
       id="polyline52" />
    <polyline
       points="382.15 299.06 373.76 306.31 366.9 297.15"
       style="fill:none;stroke:#263238;stroke-miterlimit:10"
       id="polyline54" />
    <polyline
       points="382.15 334.91 373.76 342.15 366.9 333"
       style="fill:none;stroke:#263238;stroke-miterlimit:10"
       id="polyline56" />
    <polyline
       points="382.15 371.14 373.76 378.38 366.9 369.23"
       style="fill:none;stroke:#263238;stroke-miterlimit:10"
       id="polyline58" />
    <path
       d="m 297.77,404 h 44.69 c -0.86,-5.47 -4.37,-4.51 -4.84,-13 -0.23,-4.26 3.72,-9.54 3.38,-15.14 -0.29,-4.62 -4.84,-9.35 -5.19,-14.63 -0.32,-4.77 3.56,-10 3.19,-15.19 -0.36,-4.86 -5,-9.51 -5.38,-14.56 -0.38,-5.05 3.4,-10.26 3,-15.24 -0.4,-4.98 -5.15,-9.55 -5.65,-14.46 -0.5,-4.91 3.17,-10.47 2.61,-15.3 -0.6,-5.12 -5.43,-9.55 -6.09,-14.27 -0.73,-5.25 2.7,-10.87 1.9,-15.41 -1,-5.56 -6.16,-9.58 -7.25,-13.68 -2,-7.64 -1.78,-15 -4.17,-15.49 -2.56,-0.51 -3.14,6.71 -5.08,14.78 -1,4 -6,8.16 -6.87,13.73 -0.67,4.5 2.91,10 2.32,15.21 -0.52,4.69 -5.23,9.2 -5.69,14.29 -0.44,4.8 3.39,10.08 3,15.09 -0.39,5.01 -4.93,9.52 -5.25,14.47 -0.32,4.95 3.63,10.13 3.36,15 -0.27,4.87 -4.77,9.74 -5,14.56 -0.24,5.09 3.78,10.23 3.58,15 -0.21,5.24 -4.64,10 -4.8,14.61 -0.2,5.56 3.88,10.69 3.75,14.92 -0.27,9.19 -4.47,7.28 -4.63,14.68 z"
       style="fill:#a3d168"
       id="path60" />
    <line
       x1="316.95001"
       y1="242.37"
       x2="316.95001"
       y2="401.97"
       style="fill:none;stroke:#263238;stroke-miterlimit:10"
       id="line62" />
    <polyline
       points="323.93 259.1 316.65 265.38 310.7 257.45"
       style="fill:none;stroke:#263238;stroke-miterlimit:10"
       id="polyline64" />
    <polyline
       points="323.93 286.88 316.65 293.16 310.7 285.23"
       style="fill:none;stroke:#263238;stroke-miterlimit:10"
       id="polyline66" />
    <polyline
       points="323.93 313 316.65 319.29 310.7 311.35"
       style="fill:none;stroke:#263238;stroke-miterlimit:10"
       id="polyline68" />
    <polyline
       points="323.93 344.09 316.65 350.37 310.7 342.44"
       style="fill:none;stroke:#263238;stroke-miterlimit:10"
       id="polyline70" />
    <polyline
       points="323.93 375.51 316.65 381.79 310.7 373.85"
       style="fill:none;stroke:#263238;stroke-miterlimit:10"
       id="polyline72" />
    <path
       d="m 76,404 h 44.69 c -0.86,-5.47 -4.37,-4.51 -4.83,-13 -0.24,-4.26 3.71,-9.54 3.37,-15.14 -0.28,-4.62 -4.83,-9.35 -5.19,-14.63 -0.31,-4.77 3.57,-10 3.19,-15.19 -0.35,-4.86 -5,-9.51 -5.38,-14.56 -0.38,-5.05 3.41,-10.26 3,-15.24 -0.41,-4.98 -5.14,-9.55 -5.64,-14.46 -0.5,-4.91 3.17,-10.47 2.61,-15.3 -0.6,-5.12 -5.44,-9.55 -6.09,-14.27 -0.73,-5.25 2.69,-10.87 1.89,-15.41 -1,-5.56 -6.16,-9.58 -7.24,-13.68 -2,-7.64 -1.78,-15 -4.17,-15.49 -2.56,-0.51 -3.15,6.71 -5.08,14.78 -1,4 -6,8.16 -6.87,13.73 -0.67,4.5 2.9,10 2.32,15.21 -0.53,4.69 -5.24,9.2 -5.7,14.29 -0.43,4.8 3.4,10.08 3,15.09 -0.4,5.01 -4.94,9.52 -5.26,14.47 -0.32,4.95 3.63,10.13 3.36,15 -0.27,4.87 -4.76,9.74 -5,14.56 -0.25,5.09 3.77,10.23 3.58,15 -0.22,5.24 -4.65,10 -4.81,14.61 -0.2,5.56 3.89,10.69 3.76,14.92 -0.27,9.19 -4.48,7.28 -4.63,14.68 z"
       style="fill:#a3d168"
       id="path74" />
    <line
       x1="95.209999"
       y1="242.37"
       x2="95.209999"
       y2="401.97"
       style="fill:none;stroke:#263238;stroke-miterlimit:10"
       id="line76" />
    <polyline
       points="102.19 259.1 94.91 265.38 88.96 257.45"
       style="fill:none;stroke:#263238;stroke-miterlimit:10"
       id="polyline78" />
    <polyline
       points="102.19 286.88 94.91 293.16 88.96 285.23"
       style="fill:none;stroke:#263238;stroke-miterlimit:10"
       id="polyline80" />
    <polyline
       points="102.19 313 94.91 319.29 88.96 311.35"
       style="fill:none;stroke:#263238;stroke-miterlimit:10"
       id="polyline82" />
    <polyline
       points="102.19 344.09 94.91 350.37 88.96 342.44"
       style="fill:none;stroke:#263238;stroke-miterlimit:10"
       id="polyline84" />
    <polyline
       points="102.19 375.51 94.91 381.79 88.96 373.85"
       style="fill:none;stroke:#263238;stroke-miterlimit:10"
       id="polyline86" />
  </g>
  <g
     id="freepik--Character--inject-3"
     transform="translate(-62.55,-122.8224)">
    <circle
       cx="308.79999"
       cy="366.31"
       r="38.450001"
       transform="rotate(-13.06,308.8986,366.41816)"
       style="fill:#263238"
       id="circle89" />
    <circle
       cx="308.79999"
       cy="366.31"
       r="34.130001"
       transform="rotate(-22.01,308.88093,366.36417)"
       style="fill:#ffffff"
       id="circle91" />
    <path
       d="M 308.8,396.06 A 29.75,29.75 0 0 0 336,378.3"
       style="fill:none;stroke:#263238;stroke-linecap:round;stroke-linejoin:round"
       id="path93" />
    <path
       d="m 308.8,336.57 a 29.73,29.73 0 0 0 -26,15.24"
       style="fill:none;stroke:#263238;stroke-linecap:round;stroke-linejoin:round"
       id="path95" />
    <path
       d="m 308.8,339.55 a 26.77,26.77 0 0 0 -23.39,13.74"
       style="fill:none;stroke:#263238;stroke-linecap:round;stroke-linejoin:round"
       id="path97" />
    <path
       d="m 308.29,393.07 h 0.51 A 26.78,26.78 0 0 0 333.36,377"
       style="fill:none;stroke:#263238;stroke-linecap:round;stroke-linejoin:round"
       id="path99" />
    <path
       d="m 308.8,342.86 a 23.44,23.44 0 0 0 -20.51,12.07"
       style="fill:none;stroke:#263238;stroke-linecap:round;stroke-linejoin:round"
       id="path101" />
    <path
       d="m 308.8,389.77 a 23.45,23.45 0 0 0 21.41,-13.88"
       style="fill:none;stroke:#263238;stroke-linecap:round;stroke-linejoin:round"
       id="path103" />
    <path
       d="m 308.8,346.5 a 19.81,19.81 0 0 0 -17.29,10.13"
       style="fill:none;stroke:#263238;stroke-linecap:round;stroke-linejoin:round"
       id="path105" />
    <path
       d="m 308.8,386.12 a 19.81,19.81 0 0 0 17.92,-11.35"
       style="fill:none;stroke:#263238;stroke-linecap:round;stroke-linejoin:round"
       id="path107" />
    <circle
       cx="187.13"
       cy="366.31"
       r="38.450001"
       transform="rotate(-45,187.12986,366.30828)"
       style="fill:#263238"
       id="circle109" />
    <circle
       cx="187.13"
       cy="366.31"
       r="34.130001"
       transform="rotate(-67,187.11723,366.3041)"
       style="fill:#ffffff"
       id="circle111" />
    <path
       d="M 187.13,396.06 A 29.75,29.75 0 0 0 214.36,378.3"
       style="fill:none;stroke:#263238;stroke-linecap:round;stroke-linejoin:round"
       id="path113" />
    <path
       d="m 187.13,336.57 a 29.72,29.72 0 0 0 -26,15.24"
       style="fill:none;stroke:#263238;stroke-linecap:round;stroke-linejoin:round"
       id="path115" />
    <path
       d="m 187.13,339.55 a 26.77,26.77 0 0 0 -23.39,13.74"
       style="fill:none;stroke:#263238;stroke-linecap:round;stroke-linejoin:round"
       id="path117" />
    <path
       d="m 186.62,393.07 h 0.51 A 26.77,26.77 0 0 0 211.69,377"
       style="fill:none;stroke:#263238;stroke-linecap:round;stroke-linejoin:round"
       id="path119" />
    <path
       d="m 187.13,342.86 a 23.45,23.45 0 0 0 -20.51,12.07"
       style="fill:none;stroke:#263238;stroke-linecap:round;stroke-linejoin:round"
       id="path121" />
    <path
       d="m 187.13,389.77 a 23.47,23.47 0 0 0 21.42,-13.88"
       style="fill:none;stroke:#263238;stroke-linecap:round;stroke-linejoin:round"
       id="path123" />
    <path
       d="m 187.13,346.5 a 19.82,19.82 0 0 0 -17.29,10.13"
       style="fill:none;stroke:#263238;stroke-linecap:round;stroke-linejoin:round"
       id="path125" />
    <path
       d="m 187.13,386.12 a 19.8,19.8 0 0 0 17.92,-11.35"
       style="fill:none;stroke:#263238;stroke-linecap:round;stroke-linejoin:round"
       id="path127" />
    <path
       d="m 277.88,239.55 -4.63,-20.47 c 0,0 -5.5,-2 -9.9,0.44 -3.63,2 -16.32,19.72 -20.64,25.85 l -0.26,-0.26 a 0.66,0.66 0 0 0 -1.14,0 c 0,0 -3,2.66 -2.88,3.59 a 7,7 0 0 0 1.14,1.61 l -24.69,25 c 0,0 -6.66,0.15 -7.85,0.74 -1.19,0.59 -1.19,0.74 -1.19,3 0,2.26 0.3,4.3 0.74,4.45 0.44,0.15 3.12,0.74 3.41,-0.15 0.29,-0.89 -0.74,-2.52 -0.74,-2.52 0,0 0.74,-1.92 2.23,-1.33 1.49,0.59 2.66,2.52 4.59,1.78 1.93,-0.74 3.56,-3.86 3.56,-3.86 l 26.67,-19.76 a 17.38,17.38 0 0 0 1.63,1.52 c 0.95,0.62 4.28,-1.89 4.23,-3.13 a 0.44,0.44 0 0 0 0,-0.14 z"
       style="fill:#263238"
       id="path129" />
    <path
       d="m 214.18,293 a 1.33,1.33 0 0 1 -1.15,-0.67 l -6.22,-10.88 a 1.3234519,1.3234519 0 0 1 2.3,-1.31 l 6.22,10.86 a 1.32,1.32 0 0 1 -1.15,2 z"
       style="fill:#ffffff;stroke:#263238;stroke-linecap:round;stroke-linejoin:round"
       id="path131" />
    <path
       d="m 236.83,248.89 -25.61,26 c 0,0 -6.67,0.15 -7.86,0.74 -1.19,0.59 -1.19,0.74 -1.19,3 0,2.26 0.3,4.29 0.75,4.44 0.45,0.15 3.11,0.74 3.4,-0.15 0.29,-0.89 -0.74,-2.52 -0.74,-2.52 0,0 0.74,-1.92 2.23,-1.33 1.49,0.59 2.66,2.52 4.59,1.78 1.93,-0.74 3.56,-3.85 3.56,-3.85 l 27.84,-20.7 z"
       style="fill:#ffffff;stroke:#263238;stroke-linecap:round;stroke-linejoin:round"
       id="path133" />
    <path
       d="m 211.07,280.51 a 3.08,3.08 0 1 0 -3.08,3.07 3.08,3.08 0 0 0 3.08,-3.07 z"
       style="fill:#263238"
       id="path135" />
    <path
       d="m 291.6,283.31 a 27.55,27.55 0 0 1 -8.81,2.42 c -4.84,0.44 -8.14,-0.22 -7,3.3 1.14,3.52 8.58,4.18 14.09,2.86 5.51,-1.32 8.14,-3.3 7.48,-6.82 -0.66,-3.52 -4,-2.42 -5.76,-1.76 z"
       style="fill:#263238"
       id="path137" />
    <path
       d="m 274.21,275.6 c 0,0 -33.9,25.1 -34.78,30.38 -0.88,5.28 5.28,45.34 5.28,45.34 l 5.28,1.76 c 0,0 2.87,-35.66 5.73,-42.48 2.86,-6.82 31.26,-22.89 31.92,-31 0.66,-8.11 -6.39,-8.18 -13.43,-4 z"
       style="fill:#263238"
       id="path139" />
    <path
       d="m 244.71,351.32 a 26.65,26.65 0 0 1 -5.06,0.88 c -2.86,0.22 -6.82,-1.32 -6.82,-0.22 0,1.1 4.84,5.29 7.26,5.51 2.42,0.22 5.5,0.44 5.5,0.44 l 0.12,1.71 3.18,0.93 1.1,-7.49 z"
       style="fill:#263238"
       id="path141" />
    <rect
       x="233.92999"
       y="356.82999"
       width="11.67"
       height="3.3"
       transform="rotate(26.85,239.76669,358.52757)"
       style="fill:#ffffff;stroke:#263238;stroke-linecap:round;stroke-linejoin:round"
       id="rect143" />
    <polygon
       points="254.38,364.39 240.09,357.49 239.76,358.48 253.08,367.61 "
       style="fill:#ffffff;stroke:#263238;stroke-linecap:round;stroke-linejoin:round"
       id="polygon145" />
    <path
       d="M 309.54,364.11 282.7,296.68 a 1.33,1.33 0 0 0 -0.31,-0.46 l 1.42,-3.74 a 1.3214102,1.3214102 0 1 0 -2.47,-0.94 l -3.1,8.17 h -64.53 c 1.15,-4.74 1.74,-7.64 1.77,-7.75 a 1.3208425,1.3208425 0 1 0 -2.59,-0.52 c -0.09,0.44 -9.18,44.88 -26.89,74.19 a 1.33,1.33 0 0 0 0.45,1.81 1.32,1.32 0 0 0 1.81,-0.45 c 9.4,-15.55 16.39,-35.26 20.93,-50.58 L 253,368.25 a 2.37,2.37 0 0 0 0.32,0.61 2.63,2.63 0 0 0 2.13,1.09 h 0.12 l 51.65,-2.24 a 2.65,2.65 0 0 0 2.1,-1.2 2.62,2.62 0 0 0 0.22,-2.4 z m -96.49,-61.76 h 64.19 l -23.67,62.5 -43.49,-51.48 c 1.19,-4.13 2.17,-7.87 2.97,-11.02 z m 42.41,65 25.61,-67.6 26,65.35 z"
       style="fill:#ffffff;stroke:#263238;stroke-linecap:round;stroke-linejoin:round"
       id="path147" />
    <path
       d="m 217.26,291.7 a 3.08,3.08 0 1 0 -3.08,3.08 3.08,3.08 0 0 0 3.08,-3.08 z"
       style="fill:#ffffff;stroke:#263238;stroke-linecap:round;stroke-linejoin:round"
       id="path149" />
    <path
       d="m 191.48,366.31 a 4.35,4.35 0 1 0 -4.35,4.35 4.35,4.35 0 0 0 4.35,-4.35 z"
       style="fill:#263238"
       id="path151" />
    <path
       d="m 312.62,366.31 a 4.36,4.36 0 1 0 -4.36,4.35 4.36,4.36 0 0 0 4.36,-4.35 z"
       style="fill:#263238"
       id="path153" />
    <path
       d="m 263.57,366.31 a 9,9 0 1 0 -9,9 9,9 0 0 0 9,-9 z"
       style="fill:#263238"
       id="path155" />
    <path
       d="m 268.26,368.05 -13.88,-3.66 a 2,2 0 0 0 -2.48,1.44 v 0 a 2,2 0 0 0 1.69,2.53 l 15.56,2.11 z"
       style="fill:#ffffff;stroke:#263238;stroke-linecap:round;stroke-linejoin:round"
       id="path157" />
    <rect
       x="265.62"
       y="366.29001"
       width="11.67"
       height="3.3"
       transform="rotate(-47.73,271.47124,367.94456)"
       style="fill:#ffffff;stroke:#263238;stroke-linecap:round;stroke-linejoin:round"
       id="rect159" />
    <path
       d="m 274,274.72 c 0,0 -26.57,24.57 -27.89,31.39 -1.32,6.82 25.69,50.94 25.69,50.94 l 5.28,-1.76 c 0,0 -15.19,-38.75 -13.21,-41.61 1.98,-2.86 37.52,-26.87 42.81,-35 5.29,-8.13 2.29,-16.26 -1.67,-20 -3.96,-3.74 -31.01,16.04 -31.01,16.04 z"
       style="fill:#263238"
       id="path161" />
    <polyline
       points="256.38 306.12 263.86 313.68 260.16 304.49"
       style="fill:none;stroke:#ffffff;stroke-width:0.75px;stroke-linecap:round;stroke-linejoin:round"
       id="polyline163" />
    <path
       d="m 251.24,321 c 0,0 -5.41,-13.25 -3.79,-17.31 1.62,-4.06 28.12,-24.06 28.12,-24.06 0,0 13.25,-4.46 22.18,-2.71"
       style="fill:none;stroke:#ffffff;stroke-width:0.75px;stroke-linecap:round;stroke-linejoin:round"
       id="path165" />
    <path
       d="m 290.45,274.48 c 0,0 4.59,-2.16 11.35,0.27"
       style="fill:none;stroke:#ffffff;stroke-width:0.75px;stroke-linecap:round;stroke-linejoin:round"
       id="path167" />
    <path
       d="m 271.79,357.05 c 0,0 -2.42,2.64 -4.85,5.06 -2.43,2.42 -5.5,3.08 -4.4,3.74 1.1,0.66 2.86,1.32 6.17,0.22 3.31,-1.1 7.48,-4.84 7.48,-4.84 l 0.66,1.1 3.74,-2 -3.52,-5.06 z"
       style="fill:#263238"
       id="path169" />
    <path
       d="m 258.33,187.17 a 16.67,16.67 0 0 0 -14,-4.76 c -4.71,0.85 -6,7.24 -6.9,11.08 l -0.83,3.51 0.08,2.69 -1.5,5.72 a 1.26,1.26 0 0 0 1.06,1.58 l 1.68,0.22 c 0.29,1.87 2.19,5.59 2.44,6.89 1,5 4.27,4.65 6.4,3.88 a 17.45,17.45 0 0 0 3.8,-2.46 l 5,4.23 8.94,-9.73 -3.82,-5.52 c 0,0 1.15,-13.66 -2.35,-17.33 z"
       style="fill:#ffffff;stroke:#263238;stroke-linecap:round;stroke-linejoin:round"
       id="path171" />
    <path
       d="m 240.14,201.06 c 0.14,0.79 0,1.48 -0.31,1.53 -0.31,0.05 -0.67,-0.54 -0.8,-1.33 -0.13,-0.79 0,-1.48 0.3,-1.53 0.3,-0.05 0.67,0.54 0.81,1.33 z"
       style="fill:#263238"
       id="path173" />
    <path
       d="m 237.73,197.93 a 2.45,2.45 0 0 1 3.71,0.49"
       style="fill:none;stroke:#263238;stroke-linecap:round;stroke-linejoin:round"
       id="path175" />
    <path
       d="m 245.17,192.33 c 0,0 -2.67,3.17 -1.67,4.34 a 51.93,51.93 0 0 0 4.33,3.83 c 0,0 2.34,-4.17 5.67,-2.5 3.33,1.67 0.67,5.67 1.83,7.33 1.16,1.66 5.17,-0.83 5.5,-1.66 0.33,-0.83 6.34,-13 6.67,-17.5 0.33,-4.5 -12,-9 -17.33,-10 -5.33,-1 -9.34,1.33 -8.34,0.33 1,-1 2.67,-3.67 -0.5,-4 -3.17,-0.33 -7.33,4.5 -7.33,7.33 a 3,3 0 0 0 2.83,3 c 0,0 -8,-2 -5.83,2.67 2.17,4.67 5.83,4.5 9.17,4.67 a 7.19,7.19 0 0 1 5,2.16 z"
       style="fill:#263238"
       id="path177" />
    <path
       d="m 251.33,198.5 h -0.11 a 1,1 0 0 1 -0.88,-1.1 l 1.17,-10.34 a 1.0065908,1.0065908 0 1 1 2,0.23 l -1.16,10.33 a 1,1 0 0 1 -1.02,0.88 z"
       style="fill:#ffffff;stroke:#263238;stroke-miterlimit:10"
       id="path179" />
    <path
       d="m 250.88,208.23 v 0 a 4.59,4.59 0 0 1 -4.6,-4.59 v -4.3 a 4.6,4.6 0 0 1 4.6,-4.59 v 0 a 4.6,4.6 0 0 1 4.6,4.59 v 4.3 a 4.59,4.59 0 0 1 -4.6,4.59 z"
       style="fill:#ffffff;stroke:#263238;stroke-miterlimit:10"
       id="path181" />
    <path
       d="m 252.06,177 -1.45,10.64 a 2,2 0 0 0 1.77,2.28 h 0.12 a 2,2 0 0 0 2.25,-1.76 l 1.33,-10.66 a 2,2 0 0 0 -1.76,-2.26 v 0 a 2,2 0 0 0 -2.26,1.76 z"
       style="fill:#ffffff;stroke:#263238;stroke-miterlimit:10"
       id="path183" />
    <path
       d="m 265.84,206 c 0,0 -16,14.51 -15.77,16.93 0.23,2.42 -0.28,13.22 5.66,25.33 5.94,12.11 13.06,22.29 15.7,26.91 2.64,4.62 10.33,1.2 10.33,1.2 0,0 16.17,-5.67 21.45,-10.73 5.28,-5.06 0,-14.3 0,-14.3 0,0 -19.54,-27.95 -25.92,-34.77 A 94.81,94.81 0 0 0 265.84,206 Z"
       style="fill:#a3d168;stroke:#263238;stroke-linecap:round;stroke-linejoin:round"
       id="path185" />
    <path
       d="m 249.67,225 c 0,0 3.25,-2.89 5.88,-5.28 2.63,-2.39 15.95,-5.05 19.28,-4.39 3.33,0.66 4.17,3.67 4.84,3.5 0.67,-0.17 1,-4.5 -2.5,-10.33 -3.5,-5.83 -8.84,-8.33 -11.67,-6.5 -2.83,1.83 -9.83,10.67 -12.83,14.33 -3,3.66 -4.17,5.84 -3,8.67 z"
       style="fill:#a3d168;stroke:#263238;stroke-linecap:round;stroke-linejoin:round"
       id="path187" />
    <path
       d="m 264.38,244.13 c 0,0 10.72,0.89 18.17,-0.6"
       style="fill:none;stroke:#263238;stroke-linecap:round;stroke-linejoin:round"
       id="path189" />
    <path
       d="m 260.2,245 c 0,0 10.13,6.26 20.56,6.85"
       style="fill:none;stroke:#263238;stroke-linecap:round;stroke-linejoin:round"
       id="path191" />
    <path
       d="m 269.59,218.59 c 0,0 -5.51,-2 -9.91,0.44 -4.4,2.44 -22.11,27.97 -22.11,27.97 l 9,9.63 27.6,-17.54"
       style="fill:#a3d168;stroke:#263238;stroke-linecap:round;stroke-linejoin:round"
       id="path193" />
    <path
       d="m 237.64,244.63 c 0,0 -3,2.66 -2.88,3.59 0.12,0.93 8.55,9.86 9.5,10.47 0.95,0.61 4.28,-1.89 4.23,-3.13 -0.05,-1.24 -9.71,-10.94 -9.71,-10.94 a 0.66,0.66 0 0 0 -1.14,0.01 z"
       style="fill:#a3d168;stroke:#263238;stroke-linecap:round;stroke-linejoin:round"
       id="path195" />
  </g>
</svg>
