<svg xmlns="http://www.w3.org/2000/svg" width="980pt" height="800pt" viewBox="0 0 980 800"><path d="M500.276 16.703c-107.122 0-194.556 84.783-194.556 189.697 0 51.87 19.84 100.254 47.823 145.917L57.656 392.85a12.973 12.973 0 0 0-9.88 6.957 13.008 13.008 0 0 0 .154 12.088l181.59 324.26a12.963 12.963 0 0 0 13.78 6.487L943.7 599.962a12.982 12.982 0 0 0 9.925-8.314 12.965 12.965 0 0 0-2.225-12.757L730.906 306.513a12.985 12.985 0 0 0-11.752-4.46l-48.64 6.486c14.83-32.562 24.32-66.535 24.32-102.137 0-104.914-87.434-189.697-194.556-189.697zm0 25.939c93.46 0 168.617 73.23 168.617 163.758 0 103.367-95.84 200.664-168.617 294.66-72.778-94.003-168.618-191.3-168.618-294.66 0-90.529 75.157-163.758 168.618-163.758zm0 77.827c-49.987 0-90.791 40.803-90.791 90.79 0 49.997 40.804 90.79 90.79 90.79 49.988 0 90.791-40.793 90.791-90.79 0-49.987-40.803-90.79-90.79-90.79zm0 25.938a64.654 64.654 0 0 1 64.852 64.852 64.654 64.654 0 0 1-64.852 64.852 64.654 64.654 0 0 1-64.852-64.852 64.654 64.654 0 0 1 64.852-64.852zm214.822 182.397 84.71 104.578L646.6 464.18l9.319-56.338a12.945 12.945 0 0 0-2.832-10.133l-19.46-24.727c8.006-11.843 15.841-23.85 22.7-36.072zM368.95 376.23c29.874 43.671 65.422 84.9 97.278 124.43l-131.73 26.347-79.039-135.377Zm249.264 19.045 10.938 13.788-10.133 60.8-71.738 14.186c23.479-28.644 48.412-58.013 70.932-88.774zm-390.34.407 79.446 136.6-145.917 29.178-81.473-145.51Zm590.57 60.391 99.305 122.819-187.265 38.098-80.657-126.862zM622.27 495.396l80.657 127.27-202.254 40.94-40.94-70.117a12.974 12.974 0 0 0-6.08-5.275l-91.199-40.532 121.598-24.32c1.782 2.326 3.936 4.578 5.673 6.895a12.99 12.99 0 0 0 10.54 5.41 12.99 12.99 0 0 0 10.54-5.41c3.592-4.796 7.564-9.753 11.346-14.594zm-301.562 60.39a12.974 12.974 0 0 0 5.673 4.461l112.676 50.258 34.452 58.772-226.166 45.807-72.551-130.112Z" style="fill:#000;fill-opacity:.2;stroke-width:2.31614"/></svg>