<svg xmlns="http://www.w3.org/2000/svg" width="32" height="32" fill="none"><path fill="#A3D168" d="M7.25 29.25A6.25 6.25 0 1 0 1 23a6.257 6.257 0 0 0 6.25 6.25Zm0-10.5a4.25 4.25 0 1 1 0 8.5 4.25 4.25 0 0 1 0-8.5ZM18.5 23a6.25 6.25 0 1 0 6.25-6.25A6.257 6.257 0 0 0 18.5 23Zm6.25-4.25a4.25 4.25 0 1 1 0 8.5 4.25 4.25 0 0 1 0-8.5ZM19.87 8.011a2.13 2.13 0 1 0 0-4.261 2.13 2.13 0 0 0 0 4.261Z"/><path fill="#A3D168" d="M11.935 16.644 15 19.668v5.582h2v-5.79a1.508 1.508 0 0 0-.447-1.069L13.35 15.23l4.153-4.154 3.636 3.722a1.51 1.51 0 0 0 1.073.452H24v-2h-1.579l-5.78-5.918-.03.029-.525-.525-7 7 2.828 2.828.02-.02Z"/></svg>