<svg xmlns="http://www.w3.org/2000/svg" width="700pt" height="700pt" viewBox="0 0 700 700"><path d="M254.371 490.204c36.398 36.398 85.121 56.56 136.64 56.56 51.52 0 100.24-20.16 136.64-56.56 75.602-75.602 75.602-197.68 0-273.28l-112.56-112.56c-10.078-10.078-23.52-15.68-37.52-15.68-14 0-27.44 5.602-37.52 15.68l-15.68 15.68c-20.719 20.72-20.719 54.32 0 75.04l113.12 113.12c12.32 12.32 19.04 28.558 19.04 45.358 0 17.36-6.72 33.602-19.04 45.36-12.32 12.32-28.559 19.038-45.359 19.038s-33.602-6.718-45.359-19.039l-114.25-112.56c-10.078-10.078-23.52-15.68-37.52-15.68-14 0-27.44 5.602-37.52 15.68l-15.68 15.68c-20.719 20.72-20.719 54.32 0 75.04zm92.961-332.64c0-3.922 1.68-7.28 3.922-10.078l15.68-15.68c5.04-5.039 14.56-5.039 19.602 0l35.84 35.84-35.84 35.84-35.84-35.84c-1.683-2.8-3.363-6.16-3.363-10.082zm43.68 299.6c27.441 0 53.762-10.64 73.36-30.238 19.601-19.602 30.237-45.359 30.237-73.359 0-27.44-10.64-53.762-30.238-73.359l-49.28-49.28 35.84-35.84 49.28 49.28c59.922 59.922 59.922 157.92 0 217.84-29.12 29.121-67.762 45.36-108.64 45.36-40.879-.005-80.078-15.685-109.2-44.806l-49.84-49.84 35.84-35.84 49.281 49.281c19.598 20.16 45.918 30.801 73.36 30.801zm-221.76-127.12 15.68-15.68c2.801-2.8 6.16-3.922 10.078-3.922 3.922 0 7.282 1.68 10.078 3.922l35.84 35.84-35.84 35.84-35.84-35.84c-5.593-6.16-5.593-15.12.004-20.16z" style="fill:#000;fill-opacity:.2"/></svg>