<svg xmlns="http://www.w3.org/2000/svg" width="700pt" height="700pt" viewBox="0 0 700 700"><path d="M571.442 332.448h-87.5a35.038 35.038 0 0 0-35 35v26.25h-17.5v-26.25a35.022 35.022 0 0 0-10.262-24.738 35.028 35.028 0 0 0-24.738-10.262h-8.75v-21.535a87.646 87.646 0 0 0 61.25-83.465v-8.75a8.752 8.752 0 0 0-8.75-8.75h-70v-18.742a34.938 34.938 0 0 0 21.723-16.762 34.914 34.914 0 0 0 2.922-27.28 34.95 34.95 0 0 0-17.684-20.978 34.936 34.936 0 0 0-27.383-1.738 8.739 8.739 0 0 0-5.097 4.46 8.736 8.736 0 0 0-.387 6.766 8.73 8.73 0 0 0 4.558 5.008 8.74 8.74 0 0 0 6.77.258 17.49 17.49 0 0 1 14.254 1.164 17.49 17.49 0 0 1 5.863 25.437 17.498 17.498 0 0 1-25.938 2.957 17.5 17.5 0 0 1-5.851-13.05 8.75 8.75 0 0 0-17.5 0 34.969 34.969 0 0 0 26.25 33.756v18.742h-70a8.75 8.75 0 0 0-8.75 8.75v8.75a87.653 87.653 0 0 0 16.984 51.742 87.66 87.66 0 0 0 44.266 31.723v21.535h-8.75a35.038 35.038 0 0 0-35 35v26.25h-17.5v-26.25a35.022 35.022 0 0 0-10.262-24.738 35.028 35.028 0 0 0-24.738-10.262h-87.5a35.038 35.038 0 0 0-35 35l-.008 34.992c-.004 4.832 3.914 8.75 8.746 8.754a8.753 8.753 0 0 0 8.754-8.746h26.258v35h-26.25a8.75 8.75 0 0 0-17.5 0v140a35.022 35.022 0 0 0 10.262 24.738 35.028 35.028 0 0 0 24.738 10.262h87.5a35.022 35.022 0 0 0 24.738-10.262 35.028 35.028 0 0 0 10.262-24.738v-26.25h17.5v26.25a34.945 34.945 0 0 0 7.363 21.359 34.955 34.955 0 0 0 18.887 12.398v9.992a26.296 26.296 0 0 0 7.696 18.555 26.295 26.295 0 0 0 18.555 7.695h35a26.296 26.296 0 0 0 18.555-7.695 26.295 26.295 0 0 0 7.695-18.555v-9.992a34.962 34.962 0 0 0 26.25-33.757v-26.25h17.5v26.25a35.022 35.022 0 0 0 10.262 24.738 35.028 35.028 0 0 0 24.738 10.262h87.5a35.022 35.022 0 0 0 24.738-10.262 35.028 35.028 0 0 0 10.262-24.738v-210a35.022 35.022 0 0 0-10.262-24.738 35.028 35.028 0 0 0-24.738-10.262zm17.5 35v17.5h-26.25v-35h8.75a17.51 17.51 0 0 1 12.367 5.133 17.51 17.51 0 0 1 5.133 12.367zm-78.75 175v-35h35v35zm35 17.5v35h-35v-35zm0-157.5v35h-35v-35zm-35-17.5v-35h35v35zm-43.75 70h26.25v35h-26.25zm43.75 0h35v35h-35zm-17.5-17.5h-26.25v-35h26.25zm-43.75 61.25h-17.5v-52.5h17.5zm17.5 8.75h26.25v35h-26.25zm96.25 0h26.25v35h-26.25zm0-17.5v-35h26.25v35zm0-52.5v-35h26.25v35zm-78.75-87.5h8.75v35h-26.25v-17.5a17.51 17.51 0 0 1 5.133-12.367 17.51 17.51 0 0 1 12.367-5.133zm-35 61.25v17.5h-17.5v-17.5zm-157.5-183.75h140a70.001 70.001 0 0 1-140 0zm61.25 87.062c2.88.285 5.797.441 8.75.441 2.954 0 5.872-.156 8.75-.44v17.937h-17.5zm-175 227.94v-35h35v35zm35 17.5v35h-35v-35zm-52.5-17.5h-26.25v-35h26.25zm96.25-105h-26.25v-35h26.25zm0 17.5v35h-26.25v-35zm-43.75 35h-35v-35h35zm17.5 17.5h26.25v35h-26.25zm43.75-61.25h17.5v52.5h-17.5zm17.5-35v17.5h-17.5v-17.5zm-35-43.75v17.5h-26.25v-35h8.75a17.51 17.51 0 0 1 12.367 5.133 17.51 17.51 0 0 1 5.133 12.367zm-43.75 17.5h-35v-35h35zm-78.75 0v-17.5a17.51 17.51 0 0 1 5.133-12.367 17.51 17.51 0 0 1 12.367-5.133h8.75v35zm43.75 17.5h35v35h-35zm-17.5 52.5v35h-26.25v-35zm-26.25 122.5v-17.5h26.25v35h-8.75a17.526 17.526 0 0 1-17.5-17.5zm105 17.5h-8.75v-35h26.25v17.5a17.526 17.526 0 0 1-17.5 17.5zm35-61.25v-17.5h17.5v17.5zm105 96.25h-35a8.756 8.756 0 0 1-8.75-8.75v-8.75h52.5v8.75a8.756 8.756 0 0 1-8.75 8.75zm17.5-35h-70a17.526 17.526 0 0 1-17.5-17.5V533.7h17.5a8.75 8.75 0 0 0 0-17.5h-17.5V367.45a17.51 17.51 0 0 1 5.133-12.367 17.51 17.51 0 0 1 12.367-5.133h70a17.51 17.51 0 0 1 12.367 5.133 17.51 17.51 0 0 1 5.133 12.367V516.2h-52.5a8.75 8.75 0 0 0 0 17.5h52.5v43.75a17.526 17.526 0 0 1-17.5 17.5zm35-61.25v-17.5h17.5v17.5zm35 43.75v-17.5h26.25v35h-8.75a17.526 17.526 0 0 1-17.5-17.5zm105 17.5h-8.75v-35h26.25v17.5a17.526 17.526 0 0 1-17.5 17.5zM466.442 192.448a17.51 17.51 0 0 1 12.367 5.133 17.51 17.51 0 0 1 5.133 12.367 8.75 8.75 0 0 0 17.5 0 35.022 35.022 0 0 0-10.262-24.738 35.028 35.028 0 0 0-24.738-10.262 8.75 8.75 0 0 0 0 17.5z" style="fill:#000;fill-opacity:.2"/><path d="M466.442 157.448a52.546 52.546 0 0 1 37.105 15.395 52.552 52.552 0 0 1 15.395 37.105 8.75 8.75 0 0 0 17.5 0 70.06 70.06 0 0 0-20.527-49.473 70.057 70.057 0 0 0-49.473-20.527 8.75 8.75 0 0 0 0 17.5z" style="fill:#000;fill-opacity:.2"/><path d="M466.442 122.448a87.615 87.615 0 0 1 61.844 25.656 87.614 87.614 0 0 1 25.656 61.844 8.75 8.75 0 0 0 17.5 0 105.102 105.102 0 0 0-30.789-74.21 105.097 105.097 0 0 0-74.21-30.79 8.75 8.75 0 0 0 0 17.5zM256.442 174.948a35.038 35.038 0 0 0-35 35 8.75 8.75 0 0 0 17.5 0 17.51 17.51 0 0 1 5.133-12.367 17.51 17.51 0 0 1 12.367-5.133 8.75 8.75 0 0 0 0-17.5z" style="fill:#000;fill-opacity:.2"/><path d="M256.442 139.948a70.06 70.06 0 0 0-49.473 20.527 70.057 70.057 0 0 0-20.527 49.473 8.75 8.75 0 0 0 17.5 0 52.546 52.546 0 0 1 15.395-37.105 52.552 52.552 0 0 1 37.105-15.395 8.75 8.75 0 0 0 0-17.5z" style="fill:#000;fill-opacity:.2"/><path d="M160.192 218.698a8.752 8.752 0 0 0 8.75-8.75 87.615 87.615 0 0 1 25.656-61.844 87.614 87.614 0 0 1 61.844-25.656 8.75 8.75 0 0 0 0-17.5 105.115 105.115 0 0 0-74.21 30.79 105.114 105.114 0 0 0-30.79 74.21 8.752 8.752 0 0 0 8.75 8.75z" style="fill:#000;fill-opacity:.2"/></svg>