<svg xmlns="http://www.w3.org/2000/svg" width="207" height="207" fill="none"><g fill="#A3D168" fill-opacity=".81" clip-path="url(#a)"><path d="M181.674 144.719h-71.116c-6.581 0-11.935-5.354-11.935-11.934 0-6.581 5.354-11.935 11.935-11.935h58.543c2.643 7.452 9.759 12.805 18.105 12.805 10.59 0 19.206-8.616 19.206-19.207 0-8.346-5.352-15.462-12.804-18.105V0h-65.284v56.02h52.48v40.323a19.298 19.298 0 0 0-11.703 11.703h-58.543c-13.641 0-24.739 11.098-24.739 24.739s11.098 24.738 24.739 24.738h71.116c6.58 0 11.934 5.354 11.934 11.934 0 6.581-5.354 11.935-11.934 11.935H62.354c-2.642-7.452-9.758-12.804-18.105-12.804-10.59 0-19.206 8.616-19.206 19.206S33.659 207 44.249 207c8.346 0 15.463-5.353 18.105-12.804h119.32c13.641 0 24.738-11.097 24.738-24.739 0-13.641-11.097-24.738-24.738-24.738ZM141.128 43.217V12.803h39.676v30.413h-39.676Zm46.078 64.829a6.41 6.41 0 0 1 6.402 6.402 6.41 6.41 0 0 1-6.402 6.402 6.41 6.41 0 0 1-6.402-6.402 6.41 6.41 0 0 1 6.402-6.402Zm-142.957 86.15a6.41 6.41 0 0 1-6.402-6.402 6.41 6.41 0 0 1 6.402-6.402 6.409 6.409 0 0 1 6.402 6.402 6.41 6.41 0 0 1-6.402 6.402ZM59.188 80.879c0-8.237-6.702-14.939-14.94-14.939-8.236 0-14.937 6.702-14.937 14.939 0 8.236 6.701 14.938 14.938 14.938 8.237 0 14.938-6.702 14.938-14.938Z"/><path d="M78.507 107.922c6.152-7.779 9.403-17.131 9.403-27.044 0-24.075-19.586-43.661-43.661-43.661C20.174 37.217.587 56.803.587 80.879c0 9.913 3.252 19.264 9.415 27.057l34.246 43.057 34.258-43.071ZM13.392 80.879c0-17.015 13.842-30.858 30.857-30.858 17.014 0 30.857 13.843 30.857 30.858 0 7-2.297 13.606-6.63 19.087l-24.227 30.458-24.215-30.445c-4.345-5.494-6.642-12.1-6.642-19.1Z"/></g><defs><clipPath id="a"><path fill="#fff" d="M0 0h207v207H0z"/></clipPath></defs></svg>